G04 (created by PCBNEW (2013-07-07 BZR 4022)-stable) date 08/01/2014 16:20:29*
%MOIN*%
G04 Gerber Fmt 3.4, Leading zero omitted, Abs format*
%FSLAX34Y34*%
G01*
G70*
G90*
G04 APERTURE LIST*
%ADD10C,0.00393701*%
%ADD11C,0.01*%
%ADD12C,0.008*%
%ADD13C,0.003*%
%ADD14C,0.006*%
%ADD15C,0.0035*%
G04 APERTURE END LIST*
G54D10*
G54D11*
X98725Y-46427D02*
X101296Y-49491D01*
X99491Y-45784D02*
X102062Y-48848D01*
X102062Y-48848D02*
X101296Y-49491D01*
X98725Y-46427D02*
X99491Y-45784D01*
G54D12*
X103998Y-33820D02*
X103998Y-32320D01*
G54D13*
X105725Y-33070D02*
G75*
G03X105725Y-33070I-707J0D01*
G74*
G01*
G54D11*
X104018Y-32320D02*
G75*
G02X104018Y-33821I999J-750D01*
G74*
G01*
G54D14*
X105018Y-32620D02*
G75*
G02X105468Y-33070I0J-449D01*
G74*
G01*
X105018Y-33520D02*
G75*
G02X104568Y-33070I0J450D01*
G74*
G01*
X105018Y-32420D02*
G75*
G02X105668Y-33070I0J-649D01*
G74*
G01*
X105018Y-33720D02*
G75*
G02X104368Y-33070I0J650D01*
G74*
G01*
X105018Y-32220D02*
G75*
G02X105868Y-33070I0J-849D01*
G74*
G01*
X105018Y-33920D02*
G75*
G02X104168Y-33070I0J850D01*
G74*
G01*
G54D12*
X96789Y-44919D02*
X96789Y-46419D01*
G54D13*
X96476Y-45669D02*
G75*
G03X96476Y-45669I-707J0D01*
G74*
G01*
G54D11*
X96768Y-46419D02*
G75*
G02X96768Y-44918I-999J750D01*
G74*
G01*
G54D14*
X95769Y-46119D02*
G75*
G02X95319Y-45669I0J450D01*
G74*
G01*
X95769Y-45219D02*
G75*
G02X96219Y-45669I0J-450D01*
G74*
G01*
X95769Y-46319D02*
G75*
G02X95119Y-45669I0J650D01*
G74*
G01*
X95769Y-45019D02*
G75*
G02X96419Y-45669I0J-650D01*
G74*
G01*
X95769Y-46519D02*
G75*
G02X94919Y-45669I0J850D01*
G74*
G01*
X95769Y-44819D02*
G75*
G02X96619Y-45669I0J-850D01*
G74*
G01*
G54D12*
X101225Y-47325D02*
X101531Y-47068D01*
X101433Y-46951D01*
X101394Y-46934D01*
X101368Y-46932D01*
X101326Y-46942D01*
X101282Y-46978D01*
X101265Y-47017D01*
X101263Y-47044D01*
X101273Y-47086D01*
X101371Y-47202D01*
X100833Y-46858D02*
X100980Y-47033D01*
X100907Y-46945D02*
X101213Y-46688D01*
X101194Y-46754D01*
X101189Y-46808D01*
X101199Y-46849D01*
G54D15*
X105339Y-31692D02*
X105339Y-31392D01*
X105268Y-31392D01*
X105225Y-31406D01*
X105196Y-31435D01*
X105182Y-31463D01*
X105168Y-31520D01*
X105168Y-31563D01*
X105182Y-31620D01*
X105196Y-31649D01*
X105225Y-31678D01*
X105268Y-31692D01*
X105339Y-31692D01*
X104882Y-31692D02*
X105053Y-31692D01*
X104968Y-31692D02*
X104968Y-31392D01*
X104996Y-31435D01*
X105025Y-31463D01*
X105053Y-31478D01*
X105839Y-34692D02*
X105982Y-34692D01*
X105982Y-34392D01*
X105739Y-34535D02*
X105639Y-34535D01*
X105596Y-34692D02*
X105739Y-34692D01*
X105739Y-34392D01*
X105596Y-34392D01*
X105468Y-34692D02*
X105468Y-34392D01*
X105396Y-34392D01*
X105353Y-34406D01*
X105325Y-34435D01*
X105310Y-34463D01*
X105296Y-34520D01*
X105296Y-34563D01*
X105310Y-34620D01*
X105325Y-34649D01*
X105353Y-34678D01*
X105396Y-34692D01*
X105468Y-34692D01*
X104953Y-34606D02*
X104810Y-34606D01*
X104982Y-34692D02*
X104882Y-34392D01*
X104782Y-34692D01*
X104710Y-34392D02*
X104525Y-34392D01*
X104625Y-34506D01*
X104582Y-34506D01*
X104553Y-34520D01*
X104539Y-34535D01*
X104525Y-34563D01*
X104525Y-34635D01*
X104539Y-34663D01*
X104553Y-34678D01*
X104582Y-34692D01*
X104668Y-34692D01*
X104696Y-34678D01*
X104710Y-34663D01*
X104239Y-34692D02*
X104410Y-34692D01*
X104325Y-34692D02*
X104325Y-34392D01*
X104353Y-34435D01*
X104382Y-34463D01*
X104410Y-34478D01*
X95890Y-47290D02*
X95890Y-46990D01*
X95819Y-46990D01*
X95776Y-47005D01*
X95747Y-47033D01*
X95733Y-47062D01*
X95719Y-47119D01*
X95719Y-47162D01*
X95733Y-47219D01*
X95747Y-47247D01*
X95776Y-47276D01*
X95819Y-47290D01*
X95890Y-47290D01*
X95605Y-47019D02*
X95590Y-47005D01*
X95562Y-46990D01*
X95490Y-46990D01*
X95462Y-47005D01*
X95447Y-47019D01*
X95433Y-47047D01*
X95433Y-47076D01*
X95447Y-47119D01*
X95619Y-47290D01*
X95433Y-47290D01*
X96412Y-44290D02*
X96555Y-44290D01*
X96555Y-43990D01*
X96312Y-44133D02*
X96212Y-44133D01*
X96169Y-44290D02*
X96312Y-44290D01*
X96312Y-43990D01*
X96169Y-43990D01*
X96040Y-44290D02*
X96040Y-43990D01*
X95969Y-43990D01*
X95926Y-44005D01*
X95897Y-44033D01*
X95883Y-44062D01*
X95869Y-44119D01*
X95869Y-44162D01*
X95883Y-44219D01*
X95897Y-44247D01*
X95926Y-44276D01*
X95969Y-44290D01*
X96040Y-44290D01*
X95412Y-44133D02*
X95369Y-44147D01*
X95355Y-44162D01*
X95340Y-44190D01*
X95340Y-44233D01*
X95355Y-44262D01*
X95369Y-44276D01*
X95397Y-44290D01*
X95512Y-44290D01*
X95512Y-43990D01*
X95412Y-43990D01*
X95383Y-44005D01*
X95369Y-44019D01*
X95355Y-44047D01*
X95355Y-44076D01*
X95369Y-44105D01*
X95383Y-44119D01*
X95412Y-44133D01*
X95512Y-44133D01*
X95240Y-43990D02*
X95055Y-43990D01*
X95155Y-44105D01*
X95112Y-44105D01*
X95083Y-44119D01*
X95069Y-44133D01*
X95055Y-44162D01*
X95055Y-44233D01*
X95069Y-44262D01*
X95083Y-44276D01*
X95112Y-44290D01*
X95197Y-44290D01*
X95226Y-44276D01*
X95240Y-44262D01*
X94769Y-44290D02*
X94940Y-44290D01*
X94855Y-44290D02*
X94855Y-43990D01*
X94883Y-44033D01*
X94912Y-44062D01*
X94940Y-44076D01*
M02*
