M48
INCH,LZ
T1C0.032
T2C0.040
T3C0.120
%
G90
G05
T1
X094882Y-03887
X094882Y-03987
X095169Y-045669
X096063Y-041626
X096063Y-042626
X096169Y-045669
X09685Y-03887
X09685Y-03987
X098031Y-032752
X098031Y-035752
X098228Y-042201
X098228Y-045201
X098894Y-03787
X098894Y-04087
X099894Y-035039
X099894Y-03787
X099894Y-04087
X100894Y-035039
X100894Y-03787
X100894Y-04087
X101181Y-042201
X101181Y-045201
X101894Y-03787
X101894Y-04087
X102756Y-032752
X102756Y-035752
X103937Y-03887
X103937Y-03987
X104618Y-033071
X105618Y-033071
X105906Y-03887
X105906Y-03987
T2
X09943Y-046489
X100072Y-047255
X100715Y-048021
X101358Y-048787
T3
X09252Y-043307
X096457Y-031496
X104331Y-045276
T0
M30
