G04 (created by PCBNEW (2013-07-07 BZR 4022)-stable) date 08/01/2014 16:20:29*
%MOIN*%
G04 Gerber Fmt 3.4, Leading zero omitted, Abs format*
%FSLAX34Y34*%
G01*
G70*
G90*
G04 APERTURE LIST*
%ADD10C,0.00393701*%
%ADD11C,0.012*%
%ADD12C,0.015*%
%ADD13C,0.008*%
%ADD14C,0.01125*%
%ADD15C,0.01*%
G04 APERTURE END LIST*
G54D10*
G54D11*
X101181Y-45200D02*
X101181Y-45000D01*
X101181Y-42200D02*
X101181Y-42400D01*
X101181Y-42400D02*
X100781Y-42400D01*
X100781Y-42400D02*
X100781Y-45000D01*
X100781Y-45000D02*
X101581Y-45000D01*
X101581Y-45000D02*
X101581Y-42400D01*
X101581Y-42400D02*
X101181Y-42400D01*
X100981Y-45000D02*
X100781Y-44800D01*
X102755Y-32751D02*
X102755Y-32951D01*
X102755Y-35751D02*
X102755Y-35551D01*
X102755Y-35551D02*
X103155Y-35551D01*
X103155Y-35551D02*
X103155Y-32951D01*
X103155Y-32951D02*
X102355Y-32951D01*
X102355Y-32951D02*
X102355Y-35551D01*
X102355Y-35551D02*
X102755Y-35551D01*
X102955Y-32951D02*
X103155Y-33151D01*
X98031Y-35751D02*
X98031Y-35551D01*
X98031Y-32751D02*
X98031Y-32951D01*
X98031Y-32951D02*
X97631Y-32951D01*
X97631Y-32951D02*
X97631Y-35551D01*
X97631Y-35551D02*
X98431Y-35551D01*
X98431Y-35551D02*
X98431Y-32951D01*
X98431Y-32951D02*
X98031Y-32951D01*
X97831Y-35551D02*
X97631Y-35351D01*
X98228Y-42200D02*
X98228Y-42400D01*
X98228Y-45200D02*
X98228Y-45000D01*
X98228Y-45000D02*
X98628Y-45000D01*
X98628Y-45000D02*
X98628Y-42400D01*
X98628Y-42400D02*
X97828Y-42400D01*
X97828Y-42400D02*
X97828Y-45000D01*
X97828Y-45000D02*
X98228Y-45000D01*
X98428Y-42400D02*
X98628Y-42600D01*
G54D12*
X98393Y-38870D02*
X98893Y-38870D01*
X98893Y-38870D02*
X98893Y-39870D01*
X98893Y-39870D02*
X98393Y-39870D01*
X98393Y-38370D02*
X102393Y-38370D01*
X102393Y-38370D02*
X102393Y-40370D01*
X102393Y-40370D02*
X98393Y-40370D01*
X98393Y-40370D02*
X98393Y-38370D01*
G54D11*
X95381Y-38390D02*
X95381Y-40370D01*
X95381Y-40370D02*
X94381Y-40370D01*
X94381Y-40370D02*
X94381Y-38370D01*
X94381Y-38370D02*
X95381Y-38370D01*
X95131Y-38370D02*
X95381Y-38620D01*
X105405Y-40350D02*
X105405Y-38370D01*
X105405Y-38370D02*
X106405Y-38370D01*
X106405Y-38370D02*
X106405Y-40370D01*
X106405Y-40370D02*
X105405Y-40370D01*
X105655Y-40370D02*
X105405Y-40120D01*
X96562Y-41145D02*
X96562Y-43125D01*
X96562Y-43125D02*
X95562Y-43125D01*
X95562Y-43125D02*
X95562Y-41125D01*
X95562Y-41125D02*
X96562Y-41125D01*
X96312Y-41125D02*
X96562Y-41375D01*
X99413Y-34539D02*
X101393Y-34539D01*
X101393Y-34539D02*
X101393Y-35539D01*
X101393Y-35539D02*
X99393Y-35539D01*
X99393Y-35539D02*
X99393Y-34539D01*
X99393Y-34789D02*
X99643Y-34539D01*
X97350Y-38390D02*
X97350Y-40370D01*
X97350Y-40370D02*
X96350Y-40370D01*
X96350Y-40370D02*
X96350Y-38370D01*
X96350Y-38370D02*
X97350Y-38370D01*
X97100Y-38370D02*
X97350Y-38620D01*
X104437Y-38390D02*
X104437Y-40370D01*
X104437Y-40370D02*
X103437Y-40370D01*
X103437Y-40370D02*
X103437Y-38370D01*
X103437Y-38370D02*
X104437Y-38370D01*
X104187Y-38370D02*
X104437Y-38620D01*
G54D12*
X97356Y-31496D02*
G75*
G03X97356Y-31496I-900J0D01*
G74*
G01*
X93419Y-43307D02*
G75*
G03X93419Y-43307I-900J0D01*
G74*
G01*
X105230Y-45275D02*
G75*
G03X105230Y-45275I-900J0D01*
G74*
G01*
G54D13*
X101403Y-43784D02*
X101141Y-43950D01*
X101403Y-44069D02*
X100853Y-44069D01*
X100853Y-43879D01*
X100879Y-43831D01*
X100906Y-43807D01*
X100958Y-43784D01*
X101037Y-43784D01*
X101089Y-43807D01*
X101115Y-43831D01*
X101141Y-43879D01*
X101141Y-44069D01*
X100906Y-43593D02*
X100879Y-43569D01*
X100853Y-43522D01*
X100853Y-43403D01*
X100879Y-43355D01*
X100906Y-43331D01*
X100958Y-43307D01*
X101010Y-43307D01*
X101089Y-43331D01*
X101403Y-43617D01*
X101403Y-43307D01*
X102978Y-34335D02*
X102716Y-34501D01*
X102978Y-34621D02*
X102428Y-34621D01*
X102428Y-34430D01*
X102454Y-34382D01*
X102480Y-34359D01*
X102533Y-34335D01*
X102611Y-34335D01*
X102664Y-34359D01*
X102690Y-34382D01*
X102716Y-34430D01*
X102716Y-34621D01*
X102978Y-33859D02*
X102978Y-34144D01*
X102978Y-34001D02*
X102428Y-34001D01*
X102507Y-34049D01*
X102559Y-34097D01*
X102585Y-34144D01*
X98254Y-34335D02*
X97992Y-34501D01*
X98254Y-34621D02*
X97704Y-34621D01*
X97704Y-34430D01*
X97730Y-34382D01*
X97756Y-34359D01*
X97808Y-34335D01*
X97887Y-34335D01*
X97939Y-34359D01*
X97966Y-34382D01*
X97992Y-34430D01*
X97992Y-34621D01*
X97704Y-34168D02*
X97704Y-33859D01*
X97913Y-34025D01*
X97913Y-33954D01*
X97939Y-33906D01*
X97966Y-33882D01*
X98018Y-33859D01*
X98149Y-33859D01*
X98201Y-33882D01*
X98227Y-33906D01*
X98254Y-33954D01*
X98254Y-34097D01*
X98227Y-34144D01*
X98201Y-34168D01*
X98450Y-43784D02*
X98189Y-43950D01*
X98450Y-44069D02*
X97900Y-44069D01*
X97900Y-43879D01*
X97927Y-43831D01*
X97953Y-43807D01*
X98005Y-43784D01*
X98084Y-43784D01*
X98136Y-43807D01*
X98162Y-43831D01*
X98189Y-43879D01*
X98189Y-44069D01*
X98084Y-43355D02*
X98450Y-43355D01*
X97874Y-43474D02*
X98267Y-43593D01*
X98267Y-43284D01*
G54D14*
X97477Y-39712D02*
X98043Y-39712D01*
X98110Y-39691D01*
X98143Y-39670D01*
X98177Y-39627D01*
X98177Y-39541D01*
X98143Y-39498D01*
X98110Y-39477D01*
X98043Y-39455D01*
X97477Y-39455D01*
X98177Y-39005D02*
X98177Y-39262D01*
X98177Y-39134D02*
X97477Y-39134D01*
X97577Y-39177D01*
X97643Y-39220D01*
X97677Y-39262D01*
G54D11*
G54D15*
X98946Y-38953D02*
X99174Y-38953D01*
X99060Y-39653D02*
X99060Y-38953D01*
X99498Y-39653D02*
X99307Y-39653D01*
X99307Y-38953D01*
X99860Y-39586D02*
X99841Y-39620D01*
X99784Y-39653D01*
X99746Y-39653D01*
X99688Y-39620D01*
X99650Y-39553D01*
X99631Y-39486D01*
X99612Y-39353D01*
X99612Y-39253D01*
X99631Y-39120D01*
X99650Y-39053D01*
X99688Y-38986D01*
X99746Y-38953D01*
X99784Y-38953D01*
X99841Y-38986D01*
X99860Y-39020D01*
X100012Y-39020D02*
X100031Y-38986D01*
X100069Y-38953D01*
X100165Y-38953D01*
X100203Y-38986D01*
X100222Y-39020D01*
X100241Y-39086D01*
X100241Y-39153D01*
X100222Y-39253D01*
X99993Y-39653D01*
X100241Y-39653D01*
X100374Y-38953D02*
X100641Y-38953D01*
X100469Y-39653D01*
X100774Y-39020D02*
X100793Y-38986D01*
X100831Y-38953D01*
X100927Y-38953D01*
X100965Y-38986D01*
X100984Y-39020D01*
X101003Y-39086D01*
X101003Y-39153D01*
X100984Y-39253D01*
X100755Y-39653D01*
X101003Y-39653D01*
X101403Y-39586D02*
X101384Y-39620D01*
X101327Y-39653D01*
X101288Y-39653D01*
X101231Y-39620D01*
X101193Y-39553D01*
X101174Y-39486D01*
X101155Y-39353D01*
X101155Y-39253D01*
X101174Y-39120D01*
X101193Y-39053D01*
X101231Y-38986D01*
X101288Y-38953D01*
X101327Y-38953D01*
X101384Y-38986D01*
X101403Y-39020D01*
X101574Y-39653D02*
X101574Y-38953D01*
X101727Y-38953D01*
X101765Y-38986D01*
X101784Y-39020D01*
X101803Y-39086D01*
X101803Y-39186D01*
X101784Y-39253D01*
X101765Y-39286D01*
X101727Y-39320D01*
X101574Y-39320D01*
G54D11*
G54D13*
X95543Y-40317D02*
X95543Y-40279D01*
X95562Y-40241D01*
X95581Y-40222D01*
X95619Y-40203D01*
X95696Y-40184D01*
X95791Y-40184D01*
X95867Y-40203D01*
X95905Y-40222D01*
X95924Y-40241D01*
X95943Y-40279D01*
X95943Y-40317D01*
X95924Y-40355D01*
X95905Y-40374D01*
X95867Y-40393D01*
X95791Y-40412D01*
X95696Y-40412D01*
X95619Y-40393D01*
X95581Y-40374D01*
X95562Y-40355D01*
X95543Y-40317D01*
X95905Y-40012D02*
X95924Y-39993D01*
X95943Y-40012D01*
X95924Y-40031D01*
X95905Y-40012D01*
X95943Y-40012D01*
X95943Y-39612D02*
X95943Y-39841D01*
X95943Y-39727D02*
X95543Y-39727D01*
X95600Y-39765D01*
X95639Y-39803D01*
X95658Y-39841D01*
X95677Y-39270D02*
X95943Y-39270D01*
X95677Y-39441D02*
X95886Y-39441D01*
X95924Y-39422D01*
X95943Y-39384D01*
X95943Y-39327D01*
X95924Y-39289D01*
X95905Y-39270D01*
X95734Y-38946D02*
X95734Y-39079D01*
X95943Y-39079D02*
X95543Y-39079D01*
X95543Y-38889D01*
X95943Y-38527D02*
X95943Y-38755D01*
X95943Y-38641D02*
X95543Y-38641D01*
X95600Y-38679D01*
X95639Y-38717D01*
X95658Y-38755D01*
X104767Y-40117D02*
X104767Y-40079D01*
X104786Y-40041D01*
X104805Y-40022D01*
X104843Y-40003D01*
X104919Y-39984D01*
X105015Y-39984D01*
X105091Y-40003D01*
X105129Y-40022D01*
X105148Y-40041D01*
X105167Y-40079D01*
X105167Y-40117D01*
X105148Y-40155D01*
X105129Y-40174D01*
X105091Y-40193D01*
X105015Y-40212D01*
X104919Y-40212D01*
X104843Y-40193D01*
X104805Y-40174D01*
X104786Y-40155D01*
X104767Y-40117D01*
X105129Y-39812D02*
X105148Y-39793D01*
X105167Y-39812D01*
X105148Y-39831D01*
X105129Y-39812D01*
X105167Y-39812D01*
X105167Y-39412D02*
X105167Y-39641D01*
X105167Y-39527D02*
X104767Y-39527D01*
X104824Y-39565D01*
X104862Y-39603D01*
X104881Y-39641D01*
X104900Y-39070D02*
X105167Y-39070D01*
X104900Y-39241D02*
X105110Y-39241D01*
X105148Y-39222D01*
X105167Y-39184D01*
X105167Y-39127D01*
X105148Y-39089D01*
X105129Y-39070D01*
X104957Y-38746D02*
X104957Y-38879D01*
X105167Y-38879D02*
X104767Y-38879D01*
X104767Y-38689D01*
X104805Y-38555D02*
X104786Y-38536D01*
X104767Y-38498D01*
X104767Y-38403D01*
X104786Y-38365D01*
X104805Y-38346D01*
X104843Y-38327D01*
X104881Y-38327D01*
X104938Y-38346D01*
X105167Y-38574D01*
X105167Y-38327D01*
X97086Y-42292D02*
X97105Y-42311D01*
X97124Y-42368D01*
X97124Y-42406D01*
X97105Y-42464D01*
X97067Y-42502D01*
X97029Y-42521D01*
X96953Y-42540D01*
X96896Y-42540D01*
X96820Y-42521D01*
X96782Y-42502D01*
X96743Y-42464D01*
X96724Y-42406D01*
X96724Y-42368D01*
X96743Y-42311D01*
X96762Y-42292D01*
X96724Y-41949D02*
X96724Y-42025D01*
X96743Y-42064D01*
X96762Y-42083D01*
X96820Y-42121D01*
X96896Y-42140D01*
X97048Y-42140D01*
X97086Y-42121D01*
X97105Y-42102D01*
X97124Y-42064D01*
X97124Y-41987D01*
X97105Y-41949D01*
X97086Y-41930D01*
X97048Y-41911D01*
X96953Y-41911D01*
X96915Y-41930D01*
X96896Y-41949D01*
X96877Y-41987D01*
X96877Y-42064D01*
X96896Y-42102D01*
X96915Y-42121D01*
X96953Y-42140D01*
X100427Y-34263D02*
X100407Y-34282D01*
X100350Y-34301D01*
X100312Y-34301D01*
X100255Y-34282D01*
X100217Y-34244D01*
X100198Y-34206D01*
X100179Y-34129D01*
X100179Y-34072D01*
X100198Y-33996D01*
X100217Y-33958D01*
X100255Y-33920D01*
X100312Y-33901D01*
X100350Y-33901D01*
X100407Y-33920D01*
X100427Y-33939D01*
X100788Y-33901D02*
X100598Y-33901D01*
X100579Y-34091D01*
X100598Y-34072D01*
X100636Y-34053D01*
X100731Y-34053D01*
X100769Y-34072D01*
X100788Y-34091D01*
X100807Y-34129D01*
X100807Y-34225D01*
X100788Y-34263D01*
X100769Y-34282D01*
X100731Y-34301D01*
X100636Y-34301D01*
X100598Y-34282D01*
X100579Y-34263D01*
X97912Y-40089D02*
X97912Y-40317D01*
X97912Y-40203D02*
X97512Y-40203D01*
X97569Y-40241D01*
X97607Y-40279D01*
X97626Y-40317D01*
X97512Y-39841D02*
X97512Y-39803D01*
X97531Y-39765D01*
X97550Y-39746D01*
X97588Y-39727D01*
X97664Y-39708D01*
X97759Y-39708D01*
X97836Y-39727D01*
X97874Y-39746D01*
X97893Y-39765D01*
X97912Y-39803D01*
X97912Y-39841D01*
X97893Y-39879D01*
X97874Y-39898D01*
X97836Y-39917D01*
X97759Y-39936D01*
X97664Y-39936D01*
X97588Y-39917D01*
X97550Y-39898D01*
X97531Y-39879D01*
X97512Y-39841D01*
X97645Y-39365D02*
X97912Y-39365D01*
X97645Y-39536D02*
X97855Y-39536D01*
X97893Y-39517D01*
X97912Y-39479D01*
X97912Y-39422D01*
X97893Y-39384D01*
X97874Y-39365D01*
X97702Y-39041D02*
X97702Y-39174D01*
X97912Y-39174D02*
X97512Y-39174D01*
X97512Y-38984D01*
X97550Y-38851D02*
X97531Y-38831D01*
X97512Y-38793D01*
X97512Y-38698D01*
X97531Y-38660D01*
X97550Y-38641D01*
X97588Y-38622D01*
X97626Y-38622D01*
X97683Y-38641D01*
X97912Y-38870D01*
X97912Y-38622D01*
X104998Y-40089D02*
X104998Y-40317D01*
X104998Y-40203D02*
X104598Y-40203D01*
X104656Y-40241D01*
X104694Y-40279D01*
X104713Y-40317D01*
X104598Y-39841D02*
X104598Y-39803D01*
X104617Y-39765D01*
X104637Y-39746D01*
X104675Y-39727D01*
X104751Y-39708D01*
X104846Y-39708D01*
X104922Y-39727D01*
X104960Y-39746D01*
X104979Y-39765D01*
X104998Y-39803D01*
X104998Y-39841D01*
X104979Y-39879D01*
X104960Y-39898D01*
X104922Y-39917D01*
X104846Y-39936D01*
X104751Y-39936D01*
X104675Y-39917D01*
X104637Y-39898D01*
X104617Y-39879D01*
X104598Y-39841D01*
X104732Y-39365D02*
X104998Y-39365D01*
X104732Y-39536D02*
X104941Y-39536D01*
X104979Y-39517D01*
X104998Y-39479D01*
X104998Y-39422D01*
X104979Y-39384D01*
X104960Y-39365D01*
X104789Y-39041D02*
X104789Y-39174D01*
X104998Y-39174D02*
X104598Y-39174D01*
X104598Y-38984D01*
X104998Y-38622D02*
X104998Y-38851D01*
X104998Y-38736D02*
X104598Y-38736D01*
X104656Y-38774D01*
X104694Y-38812D01*
X104713Y-38851D01*
G54D15*
X96066Y-30457D02*
X95837Y-30457D01*
X95951Y-30457D02*
X95951Y-30057D01*
X95913Y-30115D01*
X95875Y-30153D01*
X95837Y-30172D01*
X96237Y-30457D02*
X96237Y-30057D01*
X96390Y-30057D01*
X96428Y-30077D01*
X96447Y-30096D01*
X96466Y-30134D01*
X96466Y-30191D01*
X96447Y-30229D01*
X96428Y-30248D01*
X96390Y-30267D01*
X96237Y-30267D01*
X96637Y-30457D02*
X96637Y-30057D01*
X96828Y-30457D02*
X96828Y-30057D01*
X97056Y-30457D01*
X97056Y-30057D01*
X92129Y-42268D02*
X91900Y-42268D01*
X92014Y-42268D02*
X92014Y-41868D01*
X91976Y-41926D01*
X91938Y-41964D01*
X91900Y-41983D01*
X92300Y-42268D02*
X92300Y-41868D01*
X92453Y-41868D01*
X92491Y-41888D01*
X92510Y-41907D01*
X92529Y-41945D01*
X92529Y-42002D01*
X92510Y-42040D01*
X92491Y-42059D01*
X92453Y-42078D01*
X92300Y-42078D01*
X92700Y-42268D02*
X92700Y-41868D01*
X92891Y-42268D02*
X92891Y-41868D01*
X93119Y-42268D01*
X93119Y-41868D01*
X103940Y-44237D02*
X103711Y-44237D01*
X103825Y-44237D02*
X103825Y-43837D01*
X103787Y-43894D01*
X103749Y-43932D01*
X103711Y-43951D01*
X104111Y-44237D02*
X104111Y-43837D01*
X104264Y-43837D01*
X104302Y-43856D01*
X104321Y-43875D01*
X104340Y-43913D01*
X104340Y-43970D01*
X104321Y-44008D01*
X104302Y-44027D01*
X104264Y-44047D01*
X104111Y-44047D01*
X104511Y-44237D02*
X104511Y-43837D01*
X104702Y-44237D02*
X104702Y-43837D01*
X104930Y-44237D01*
X104930Y-43837D01*
M02*
