G04 (created by PCBNEW (2013-07-07 BZR 4022)-stable) date 08/01/2014 16:20:29*
%MOIN*%
G04 Gerber Fmt 3.4, Leading zero omitted, Abs format*
%FSLAX34Y34*%
G01*
G70*
G90*
G04 APERTURE LIST*
%ADD10C,0.00393701*%
%ADD11C,0.065*%
%ADD12C,0.06*%
%ADD13C,0.066*%
%ADD14R,0.062X0.09*%
%ADD15O,0.062X0.09*%
%ADD16C,0.055*%
%ADD17C,0.16*%
%ADD18C,0.019685*%
%ADD19C,0.01*%
G04 APERTURE END LIST*
G54D10*
G54D11*
X101181Y-45200D03*
X101181Y-42200D03*
X102755Y-32751D03*
X102755Y-35751D03*
X98031Y-35751D03*
X98031Y-32751D03*
X98228Y-42200D03*
X98228Y-45200D03*
G54D10*
G36*
X101780Y-48823D02*
X101320Y-49209D01*
X100935Y-48749D01*
X101394Y-48364D01*
X101780Y-48823D01*
X101780Y-48823D01*
G37*
G54D12*
X100715Y-48020D03*
X100072Y-47254D03*
X99429Y-46488D03*
G54D13*
X105618Y-33070D03*
X104618Y-33070D03*
X95169Y-45669D03*
X96169Y-45669D03*
G54D14*
X98893Y-40870D03*
G54D15*
X99893Y-40870D03*
X100893Y-40870D03*
X101893Y-40870D03*
X101893Y-37870D03*
X100893Y-37870D03*
X99893Y-37870D03*
X98893Y-37870D03*
G54D16*
X94881Y-38870D03*
X94881Y-39870D03*
X105905Y-39870D03*
X105905Y-38870D03*
X96062Y-41625D03*
X96062Y-42625D03*
X99893Y-35039D03*
X100893Y-35039D03*
X96850Y-38870D03*
X96850Y-39870D03*
X103937Y-38870D03*
X103937Y-39870D03*
G54D17*
X96456Y-31496D03*
X92519Y-43307D03*
X104330Y-45275D03*
G54D18*
X105905Y-38870D02*
X106192Y-38870D01*
X100383Y-47254D02*
X102362Y-45275D01*
X102362Y-45275D02*
X102362Y-43700D01*
X102362Y-43700D02*
X105118Y-40944D01*
X105118Y-40944D02*
X106299Y-40944D01*
X106299Y-40944D02*
X107086Y-40157D01*
X107086Y-40157D02*
X107086Y-39763D01*
X107086Y-39763D02*
X106299Y-38976D01*
X100383Y-47254D02*
X100072Y-47254D01*
X106192Y-38870D02*
X106299Y-38976D01*
X94881Y-38870D02*
X96850Y-38870D01*
X97893Y-38870D02*
X98893Y-37870D01*
X96850Y-38870D02*
X97893Y-38870D01*
X103937Y-38870D02*
X102862Y-38870D01*
X100393Y-39370D02*
X98893Y-37870D01*
X102362Y-39370D02*
X100393Y-39370D01*
X102862Y-38870D02*
X102362Y-39370D01*
X105905Y-38870D02*
X103937Y-38870D01*
X96062Y-41625D02*
X96562Y-41625D01*
X96562Y-41625D02*
X98425Y-39763D01*
X98425Y-39763D02*
X99212Y-39763D01*
X99212Y-39763D02*
X99893Y-40444D01*
X99893Y-40444D02*
X99893Y-40870D01*
X101181Y-42200D02*
X101181Y-42157D01*
X101181Y-42157D02*
X99893Y-40870D01*
X99893Y-40870D02*
X99893Y-41944D01*
X99893Y-41944D02*
X96169Y-45669D01*
X104618Y-33070D02*
X104618Y-35145D01*
X102149Y-36614D02*
X100893Y-37870D01*
X103149Y-36614D02*
X102149Y-36614D01*
X104618Y-35145D02*
X103149Y-36614D01*
X100893Y-35039D02*
X100893Y-37870D01*
X102755Y-35751D02*
X101606Y-35751D01*
X101606Y-35751D02*
X100893Y-35039D01*
X101357Y-48786D02*
X98786Y-48786D01*
X94488Y-44200D02*
X96062Y-42625D01*
X94488Y-46456D02*
X94488Y-44200D01*
X95275Y-47244D02*
X94488Y-46456D01*
X97244Y-47244D02*
X95275Y-47244D01*
X98786Y-48786D02*
X97244Y-47244D01*
X98228Y-42200D02*
X96488Y-42200D01*
X96488Y-42200D02*
X96062Y-42625D01*
X98893Y-40870D02*
X98893Y-41535D01*
X98893Y-41535D02*
X98228Y-42200D01*
X99893Y-35039D02*
X99893Y-37870D01*
X98031Y-35751D02*
X99181Y-35751D01*
X99181Y-35751D02*
X99893Y-35039D01*
X100715Y-48020D02*
X100715Y-47710D01*
X100715Y-47710D02*
X102755Y-45669D01*
X102755Y-45669D02*
X102755Y-44094D01*
X102755Y-44094D02*
X105511Y-41338D01*
X105511Y-41338D02*
X106692Y-41338D01*
X106692Y-41338D02*
X107480Y-40551D01*
X107480Y-40551D02*
X107480Y-39370D01*
X107480Y-39370D02*
X106299Y-38188D01*
X106299Y-38188D02*
X102755Y-38188D01*
X102755Y-38188D02*
X102362Y-38582D01*
X102362Y-38582D02*
X100606Y-38582D01*
X100606Y-38582D02*
X99893Y-37870D01*
X98228Y-45200D02*
X101181Y-45200D01*
X102755Y-32751D02*
X98031Y-32751D01*
G54D10*
G36*
X108381Y-40829D02*
X107828Y-41382D01*
X107828Y-40551D01*
X107828Y-40551D01*
X107828Y-39370D01*
X107802Y-39236D01*
X107726Y-39123D01*
X107726Y-39123D01*
X106545Y-37942D01*
X106432Y-37867D01*
X106410Y-37862D01*
X106299Y-37840D01*
X106299Y-37840D01*
X106202Y-37840D01*
X106202Y-33159D01*
X106192Y-32929D01*
X106124Y-32764D01*
X106025Y-32733D01*
X105955Y-32804D01*
X105955Y-32663D01*
X105924Y-32564D01*
X105707Y-32486D01*
X105476Y-32496D01*
X105312Y-32564D01*
X105281Y-32663D01*
X105618Y-33000D01*
X105955Y-32663D01*
X105955Y-32804D01*
X105688Y-33070D01*
X106025Y-33407D01*
X106124Y-33376D01*
X106202Y-33159D01*
X106202Y-37840D01*
X105955Y-37840D01*
X105955Y-33478D01*
X105618Y-33141D01*
X105281Y-33478D01*
X105312Y-33576D01*
X105529Y-33655D01*
X105759Y-33645D01*
X105924Y-33576D01*
X105955Y-33478D01*
X105955Y-37840D01*
X102755Y-37840D01*
X102622Y-37867D01*
X102509Y-37942D01*
X102509Y-37942D01*
X102453Y-37998D01*
X102453Y-37920D01*
X101943Y-37920D01*
X101943Y-37927D01*
X101843Y-37927D01*
X101843Y-37920D01*
X101835Y-37920D01*
X101835Y-37820D01*
X101843Y-37820D01*
X101843Y-37812D01*
X101943Y-37812D01*
X101943Y-37820D01*
X102453Y-37820D01*
X102453Y-37680D01*
X102391Y-37469D01*
X102254Y-37298D01*
X102062Y-37193D01*
X102293Y-36962D01*
X103149Y-36962D01*
X103149Y-36962D01*
X103149Y-36962D01*
X103260Y-36940D01*
X103282Y-36936D01*
X103282Y-36936D01*
X103395Y-36860D01*
X104864Y-35392D01*
X104864Y-35392D01*
X104864Y-35392D01*
X104940Y-35279D01*
X104966Y-35145D01*
X104966Y-33542D01*
X105109Y-33399D01*
X105118Y-33378D01*
X105210Y-33407D01*
X105547Y-33070D01*
X105210Y-32733D01*
X105118Y-32762D01*
X105110Y-32742D01*
X104947Y-32579D01*
X104733Y-32490D01*
X104503Y-32490D01*
X104289Y-32578D01*
X104126Y-32741D01*
X104038Y-32954D01*
X104038Y-33185D01*
X104126Y-33398D01*
X104269Y-33542D01*
X104269Y-35001D01*
X103278Y-35992D01*
X103330Y-35866D01*
X103331Y-35638D01*
X103331Y-32638D01*
X103243Y-32426D01*
X103082Y-32264D01*
X102870Y-32177D01*
X102642Y-32176D01*
X102430Y-32264D01*
X102291Y-32403D01*
X98496Y-32403D01*
X98357Y-32264D01*
X98146Y-32177D01*
X97917Y-32176D01*
X97706Y-32264D01*
X97544Y-32425D01*
X97506Y-32516D01*
X97506Y-31288D01*
X97347Y-30902D01*
X97052Y-30606D01*
X96666Y-30446D01*
X96248Y-30445D01*
X95862Y-30605D01*
X95567Y-30900D01*
X95406Y-31286D01*
X95406Y-31704D01*
X95566Y-32090D01*
X95861Y-32385D01*
X96246Y-32545D01*
X96664Y-32546D01*
X97050Y-32386D01*
X97346Y-32091D01*
X97506Y-31705D01*
X97506Y-31288D01*
X97506Y-32516D01*
X97456Y-32637D01*
X97456Y-32865D01*
X97543Y-33077D01*
X97705Y-33239D01*
X97916Y-33326D01*
X98145Y-33327D01*
X98356Y-33239D01*
X98496Y-33100D01*
X102291Y-33100D01*
X102429Y-33239D01*
X102641Y-33326D01*
X102869Y-33327D01*
X103081Y-33239D01*
X103243Y-33078D01*
X103330Y-32866D01*
X103331Y-32638D01*
X103331Y-35638D01*
X103243Y-35426D01*
X103082Y-35264D01*
X102870Y-35177D01*
X102642Y-35176D01*
X102430Y-35264D01*
X102291Y-35403D01*
X101750Y-35403D01*
X101418Y-35071D01*
X101418Y-34935D01*
X101339Y-34742D01*
X101191Y-34594D01*
X100998Y-34514D01*
X100789Y-34514D01*
X100596Y-34594D01*
X100448Y-34741D01*
X100393Y-34874D01*
X100339Y-34742D01*
X100191Y-34594D01*
X99998Y-34514D01*
X99789Y-34514D01*
X99596Y-34594D01*
X99448Y-34741D01*
X99368Y-34934D01*
X99368Y-35071D01*
X99036Y-35403D01*
X98496Y-35403D01*
X98357Y-35264D01*
X98146Y-35177D01*
X97917Y-35176D01*
X97706Y-35264D01*
X97544Y-35425D01*
X97456Y-35637D01*
X97456Y-35865D01*
X97543Y-36077D01*
X97705Y-36239D01*
X97916Y-36326D01*
X98145Y-36327D01*
X98356Y-36239D01*
X98496Y-36100D01*
X99181Y-36100D01*
X99181Y-36100D01*
X99181Y-36100D01*
X99292Y-36078D01*
X99314Y-36073D01*
X99314Y-36073D01*
X99427Y-35998D01*
X99545Y-35880D01*
X99545Y-37288D01*
X99497Y-37320D01*
X99393Y-37476D01*
X99289Y-37320D01*
X99108Y-37198D01*
X98893Y-37156D01*
X98679Y-37198D01*
X98497Y-37320D01*
X98376Y-37502D01*
X98333Y-37716D01*
X98333Y-37937D01*
X97749Y-38521D01*
X97244Y-38521D01*
X97148Y-38425D01*
X96955Y-38345D01*
X96746Y-38344D01*
X96553Y-38424D01*
X96456Y-38521D01*
X95275Y-38521D01*
X95179Y-38425D01*
X94986Y-38345D01*
X94777Y-38344D01*
X94584Y-38424D01*
X94437Y-38572D01*
X94356Y-38765D01*
X94356Y-38974D01*
X94436Y-39167D01*
X94584Y-39314D01*
X94710Y-39367D01*
X94609Y-39409D01*
X94584Y-39502D01*
X94881Y-39799D01*
X95178Y-39502D01*
X95154Y-39409D01*
X95044Y-39370D01*
X95178Y-39315D01*
X95275Y-39218D01*
X96456Y-39218D01*
X96552Y-39314D01*
X96679Y-39367D01*
X96577Y-39409D01*
X96553Y-39502D01*
X96850Y-39799D01*
X97147Y-39502D01*
X97123Y-39409D01*
X97013Y-39370D01*
X97147Y-39315D01*
X97244Y-39218D01*
X97893Y-39218D01*
X97893Y-39218D01*
X97893Y-39218D01*
X98004Y-39196D01*
X98027Y-39191D01*
X98027Y-39191D01*
X98140Y-39116D01*
X98709Y-38547D01*
X98893Y-38583D01*
X99078Y-38547D01*
X100147Y-39616D01*
X100147Y-39616D01*
X100260Y-39691D01*
X100393Y-39718D01*
X102362Y-39718D01*
X102362Y-39718D01*
X102362Y-39718D01*
X102473Y-39696D01*
X102495Y-39691D01*
X102495Y-39691D01*
X102608Y-39616D01*
X103006Y-39218D01*
X103543Y-39218D01*
X103639Y-39314D01*
X103765Y-39367D01*
X103664Y-39409D01*
X103639Y-39502D01*
X103937Y-39799D01*
X104234Y-39502D01*
X104209Y-39409D01*
X104099Y-39370D01*
X104234Y-39315D01*
X104331Y-39218D01*
X105511Y-39218D01*
X105607Y-39314D01*
X105734Y-39367D01*
X105632Y-39409D01*
X105608Y-39502D01*
X105905Y-39799D01*
X106202Y-39502D01*
X106178Y-39409D01*
X106068Y-39370D01*
X106162Y-39332D01*
X106738Y-39908D01*
X106738Y-40013D01*
X106435Y-40315D01*
X106435Y-39945D01*
X106424Y-39737D01*
X106366Y-39597D01*
X106273Y-39572D01*
X105976Y-39870D01*
X106273Y-40167D01*
X106366Y-40142D01*
X106435Y-39945D01*
X106435Y-40315D01*
X106202Y-40548D01*
X106202Y-40237D01*
X105905Y-39940D01*
X105834Y-40011D01*
X105834Y-39870D01*
X105537Y-39572D01*
X105444Y-39597D01*
X105375Y-39794D01*
X105386Y-40002D01*
X105444Y-40142D01*
X105537Y-40167D01*
X105834Y-39870D01*
X105834Y-40011D01*
X105608Y-40237D01*
X105632Y-40330D01*
X105829Y-40399D01*
X106038Y-40388D01*
X106178Y-40330D01*
X106202Y-40237D01*
X106202Y-40548D01*
X106154Y-40596D01*
X105118Y-40596D01*
X105118Y-40596D01*
X104984Y-40622D01*
X104871Y-40698D01*
X104871Y-40698D01*
X104466Y-41103D01*
X104466Y-39945D01*
X104455Y-39737D01*
X104397Y-39597D01*
X104304Y-39572D01*
X104007Y-39870D01*
X104304Y-40167D01*
X104397Y-40142D01*
X104466Y-39945D01*
X104466Y-41103D01*
X104234Y-41336D01*
X104234Y-40237D01*
X103937Y-39940D01*
X103866Y-40011D01*
X103866Y-39870D01*
X103569Y-39572D01*
X103476Y-39597D01*
X103407Y-39794D01*
X103418Y-40002D01*
X103476Y-40142D01*
X103569Y-40167D01*
X103866Y-39870D01*
X103866Y-40011D01*
X103639Y-40237D01*
X103664Y-40330D01*
X103861Y-40399D01*
X104069Y-40388D01*
X104209Y-40330D01*
X104234Y-40237D01*
X104234Y-41336D01*
X102453Y-43116D01*
X102453Y-41060D01*
X102453Y-40920D01*
X102453Y-40820D01*
X102453Y-40680D01*
X102391Y-40469D01*
X102254Y-40298D01*
X102061Y-40193D01*
X102030Y-40187D01*
X101943Y-40235D01*
X101943Y-40820D01*
X102453Y-40820D01*
X102453Y-40920D01*
X101943Y-40920D01*
X101943Y-41505D01*
X102030Y-41553D01*
X102061Y-41546D01*
X102254Y-41441D01*
X102391Y-41270D01*
X102453Y-41060D01*
X102453Y-43116D01*
X102115Y-43454D01*
X102040Y-43567D01*
X102035Y-43589D01*
X102013Y-43700D01*
X102013Y-43700D01*
X102013Y-45131D01*
X101703Y-45441D01*
X101756Y-45315D01*
X101756Y-45086D01*
X101668Y-44875D01*
X101507Y-44713D01*
X101295Y-44625D01*
X101067Y-44625D01*
X100855Y-44713D01*
X100716Y-44852D01*
X98692Y-44852D01*
X98554Y-44713D01*
X98343Y-44625D01*
X98114Y-44625D01*
X97903Y-44713D01*
X97741Y-44874D01*
X97653Y-45085D01*
X97653Y-45314D01*
X97740Y-45526D01*
X97902Y-45687D01*
X98113Y-45775D01*
X98342Y-45775D01*
X98553Y-45688D01*
X98693Y-45549D01*
X100716Y-45549D01*
X100854Y-45687D01*
X101066Y-45775D01*
X101294Y-45775D01*
X101421Y-45723D01*
X100364Y-46780D01*
X100182Y-46704D01*
X99983Y-46704D01*
X99983Y-46399D01*
X99907Y-46194D01*
X99758Y-46034D01*
X99613Y-45958D01*
X99522Y-45999D01*
X99483Y-46443D01*
X99927Y-46482D01*
X99983Y-46399D01*
X99983Y-46704D01*
X99963Y-46704D01*
X99936Y-46715D01*
X99959Y-46672D01*
X99919Y-46581D01*
X99562Y-46550D01*
X99505Y-46494D01*
X99435Y-46565D01*
X99469Y-46599D01*
X99436Y-46986D01*
X99518Y-47042D01*
X99573Y-47021D01*
X99522Y-47144D01*
X99522Y-47363D01*
X99605Y-47565D01*
X99760Y-47720D01*
X99962Y-47804D01*
X100181Y-47804D01*
X100215Y-47790D01*
X100165Y-47910D01*
X100164Y-48129D01*
X100248Y-48331D01*
X100354Y-48438D01*
X99422Y-48438D01*
X99422Y-45990D01*
X99340Y-45935D01*
X99135Y-46011D01*
X98975Y-46160D01*
X98899Y-46305D01*
X98940Y-46395D01*
X99384Y-46434D01*
X99422Y-45990D01*
X99422Y-48438D01*
X99375Y-48438D01*
X99375Y-46534D01*
X98931Y-46495D01*
X98875Y-46577D01*
X98951Y-46782D01*
X99100Y-46943D01*
X99245Y-47018D01*
X99336Y-46978D01*
X99375Y-46534D01*
X99375Y-48438D01*
X98931Y-48438D01*
X97490Y-46997D01*
X97377Y-46922D01*
X97355Y-46917D01*
X97244Y-46895D01*
X97244Y-46895D01*
X95419Y-46895D01*
X94836Y-46312D01*
X94836Y-46090D01*
X94863Y-46175D01*
X95080Y-46253D01*
X95310Y-46243D01*
X95475Y-46175D01*
X95506Y-46076D01*
X95169Y-45740D01*
X95163Y-45745D01*
X95093Y-45674D01*
X95098Y-45669D01*
X95093Y-45663D01*
X95163Y-45593D01*
X95169Y-45598D01*
X95506Y-45261D01*
X95475Y-45163D01*
X95258Y-45084D01*
X95027Y-45095D01*
X94863Y-45163D01*
X94836Y-45248D01*
X94836Y-44345D01*
X96030Y-43150D01*
X96166Y-43151D01*
X96359Y-43071D01*
X96507Y-42923D01*
X96587Y-42730D01*
X96588Y-42593D01*
X96632Y-42549D01*
X97763Y-42549D01*
X97902Y-42687D01*
X98113Y-42775D01*
X98342Y-42775D01*
X98553Y-42688D01*
X98715Y-42526D01*
X98803Y-42315D01*
X98803Y-42118D01*
X99140Y-41781D01*
X99140Y-41781D01*
X99140Y-41781D01*
X99215Y-41668D01*
X99235Y-41570D01*
X99253Y-41570D01*
X99345Y-41532D01*
X99415Y-41461D01*
X99453Y-41370D01*
X99453Y-41353D01*
X99497Y-41419D01*
X99545Y-41451D01*
X99545Y-41800D01*
X96256Y-45089D01*
X96054Y-45089D01*
X95841Y-45177D01*
X95677Y-45340D01*
X95669Y-45361D01*
X95576Y-45332D01*
X95240Y-45669D01*
X95576Y-46006D01*
X95668Y-45977D01*
X95677Y-45997D01*
X95840Y-46160D01*
X96053Y-46249D01*
X96284Y-46249D01*
X96497Y-46161D01*
X96660Y-45998D01*
X96749Y-45785D01*
X96749Y-45581D01*
X100140Y-42191D01*
X100140Y-42191D01*
X100140Y-42191D01*
X100215Y-42078D01*
X100242Y-41944D01*
X100242Y-41711D01*
X100609Y-42078D01*
X100606Y-42085D01*
X100606Y-42314D01*
X100693Y-42526D01*
X100854Y-42687D01*
X101066Y-42775D01*
X101294Y-42775D01*
X101506Y-42688D01*
X101668Y-42526D01*
X101756Y-42315D01*
X101756Y-42086D01*
X101668Y-41875D01*
X101507Y-41713D01*
X101295Y-41625D01*
X101142Y-41625D01*
X101062Y-41546D01*
X101254Y-41441D01*
X101391Y-41270D01*
X101393Y-41264D01*
X101395Y-41270D01*
X101533Y-41441D01*
X101725Y-41546D01*
X101757Y-41553D01*
X101843Y-41505D01*
X101843Y-40920D01*
X101843Y-40820D01*
X101843Y-40235D01*
X101757Y-40187D01*
X101725Y-40193D01*
X101533Y-40298D01*
X101395Y-40469D01*
X101393Y-40475D01*
X101391Y-40469D01*
X101254Y-40298D01*
X101061Y-40193D01*
X101030Y-40187D01*
X100943Y-40235D01*
X100943Y-40820D01*
X101333Y-40820D01*
X101453Y-40820D01*
X101843Y-40820D01*
X101843Y-40920D01*
X101453Y-40920D01*
X101333Y-40920D01*
X100943Y-40920D01*
X100943Y-40927D01*
X100843Y-40927D01*
X100843Y-40920D01*
X100835Y-40920D01*
X100835Y-40820D01*
X100843Y-40820D01*
X100843Y-40235D01*
X100757Y-40187D01*
X100725Y-40193D01*
X100533Y-40298D01*
X100395Y-40469D01*
X100393Y-40475D01*
X100289Y-40320D01*
X100166Y-40238D01*
X100166Y-40238D01*
X100140Y-40198D01*
X100140Y-40198D01*
X99458Y-39517D01*
X99345Y-39441D01*
X99323Y-39437D01*
X99212Y-39415D01*
X99212Y-39415D01*
X98425Y-39415D01*
X98425Y-39415D01*
X98291Y-39441D01*
X98178Y-39517D01*
X98178Y-39517D01*
X97380Y-40315D01*
X97380Y-39945D01*
X97368Y-39737D01*
X97310Y-39597D01*
X97218Y-39572D01*
X96921Y-39870D01*
X97218Y-40167D01*
X97310Y-40142D01*
X97380Y-39945D01*
X97380Y-40315D01*
X97147Y-40548D01*
X97147Y-40237D01*
X96850Y-39940D01*
X96779Y-40011D01*
X96779Y-39870D01*
X96482Y-39572D01*
X96389Y-39597D01*
X96320Y-39794D01*
X96331Y-40002D01*
X96389Y-40142D01*
X96482Y-40167D01*
X96779Y-39870D01*
X96779Y-40011D01*
X96553Y-40237D01*
X96577Y-40330D01*
X96774Y-40399D01*
X96983Y-40388D01*
X97123Y-40330D01*
X97147Y-40237D01*
X97147Y-40548D01*
X96437Y-41258D01*
X96360Y-41181D01*
X96167Y-41101D01*
X95959Y-41100D01*
X95765Y-41180D01*
X95618Y-41328D01*
X95538Y-41521D01*
X95537Y-41729D01*
X95617Y-41922D01*
X95765Y-42070D01*
X95898Y-42126D01*
X95765Y-42180D01*
X95618Y-42328D01*
X95538Y-42521D01*
X95537Y-42658D01*
X95411Y-42784D01*
X95411Y-39945D01*
X95400Y-39737D01*
X95342Y-39597D01*
X95249Y-39572D01*
X94952Y-39870D01*
X95249Y-40167D01*
X95342Y-40142D01*
X95411Y-39945D01*
X95411Y-42784D01*
X95178Y-43017D01*
X95178Y-40237D01*
X94881Y-39940D01*
X94811Y-40011D01*
X94811Y-39870D01*
X94514Y-39572D01*
X94421Y-39597D01*
X94351Y-39794D01*
X94363Y-40002D01*
X94421Y-40142D01*
X94514Y-40167D01*
X94811Y-39870D01*
X94811Y-40011D01*
X94584Y-40237D01*
X94609Y-40330D01*
X94806Y-40399D01*
X95014Y-40388D01*
X95154Y-40330D01*
X95178Y-40237D01*
X95178Y-43017D01*
X94241Y-43954D01*
X94166Y-44067D01*
X94161Y-44089D01*
X94139Y-44200D01*
X94139Y-44200D01*
X94139Y-46456D01*
X94139Y-46456D01*
X94161Y-46567D01*
X94166Y-46590D01*
X94241Y-46703D01*
X95029Y-47490D01*
X95029Y-47490D01*
X95142Y-47565D01*
X95275Y-47592D01*
X95275Y-47592D01*
X95275Y-47592D01*
X97099Y-47592D01*
X98540Y-49033D01*
X98540Y-49033D01*
X98653Y-49108D01*
X98786Y-49135D01*
X98786Y-49135D01*
X98786Y-49135D01*
X100932Y-49135D01*
X101161Y-49408D01*
X101249Y-49454D01*
X101348Y-49462D01*
X101443Y-49433D01*
X101519Y-49369D01*
X101979Y-48983D01*
X102025Y-48895D01*
X102033Y-48796D01*
X102004Y-48701D01*
X101940Y-48625D01*
X101554Y-48165D01*
X101466Y-48119D01*
X101367Y-48110D01*
X101272Y-48140D01*
X101254Y-48155D01*
X101264Y-48130D01*
X101265Y-47911D01*
X101189Y-47728D01*
X103002Y-45915D01*
X103002Y-45915D01*
X103002Y-45915D01*
X103077Y-45802D01*
X103104Y-45669D01*
X103104Y-45669D01*
X103104Y-45669D01*
X103104Y-44238D01*
X105656Y-41687D01*
X106692Y-41687D01*
X106692Y-41687D01*
X106692Y-41687D01*
X106804Y-41664D01*
X106826Y-41660D01*
X106826Y-41660D01*
X106939Y-41584D01*
X107726Y-40797D01*
X107726Y-40797D01*
X107726Y-40797D01*
X107802Y-40684D01*
X107828Y-40551D01*
X107828Y-40551D01*
X107828Y-41382D01*
X106101Y-43109D01*
X106040Y-43200D01*
X106019Y-43307D01*
X106019Y-45947D01*
X105380Y-46586D01*
X105380Y-45067D01*
X105221Y-44681D01*
X104926Y-44385D01*
X104540Y-44225D01*
X104122Y-44225D01*
X103736Y-44384D01*
X103441Y-44680D01*
X103280Y-45065D01*
X103280Y-45483D01*
X103440Y-45869D01*
X103735Y-46165D01*
X104120Y-46325D01*
X104538Y-46325D01*
X104924Y-46166D01*
X105220Y-45871D01*
X105380Y-45485D01*
X105380Y-45067D01*
X105380Y-46586D01*
X102246Y-49720D01*
X96966Y-49720D01*
X93569Y-46324D01*
X93569Y-43099D01*
X93410Y-42713D01*
X93115Y-42417D01*
X92729Y-42257D01*
X92311Y-42256D01*
X91925Y-42416D01*
X91630Y-42711D01*
X91469Y-43097D01*
X91469Y-43515D01*
X91629Y-43901D01*
X91924Y-44196D01*
X92309Y-44356D01*
X92727Y-44357D01*
X93113Y-44197D01*
X93409Y-43902D01*
X93569Y-43516D01*
X93569Y-43099D01*
X93569Y-46324D01*
X91224Y-43978D01*
X91224Y-42635D01*
X93504Y-40355D01*
X93565Y-40264D01*
X93586Y-40157D01*
X93586Y-37517D01*
X95079Y-36024D01*
X95140Y-35933D01*
X95161Y-35826D01*
X95161Y-30824D01*
X96572Y-29413D01*
X104214Y-29413D01*
X107200Y-32399D01*
X107200Y-37401D01*
X107222Y-37508D01*
X107282Y-37599D01*
X108381Y-38698D01*
X108381Y-40829D01*
X108381Y-40829D01*
G37*
G54D19*
X108381Y-40829D02*
X107828Y-41382D01*
X107828Y-40551D01*
X107828Y-40551D01*
X107828Y-39370D01*
X107802Y-39236D01*
X107726Y-39123D01*
X107726Y-39123D01*
X106545Y-37942D01*
X106432Y-37867D01*
X106410Y-37862D01*
X106299Y-37840D01*
X106299Y-37840D01*
X106202Y-37840D01*
X106202Y-33159D01*
X106192Y-32929D01*
X106124Y-32764D01*
X106025Y-32733D01*
X105955Y-32804D01*
X105955Y-32663D01*
X105924Y-32564D01*
X105707Y-32486D01*
X105476Y-32496D01*
X105312Y-32564D01*
X105281Y-32663D01*
X105618Y-33000D01*
X105955Y-32663D01*
X105955Y-32804D01*
X105688Y-33070D01*
X106025Y-33407D01*
X106124Y-33376D01*
X106202Y-33159D01*
X106202Y-37840D01*
X105955Y-37840D01*
X105955Y-33478D01*
X105618Y-33141D01*
X105281Y-33478D01*
X105312Y-33576D01*
X105529Y-33655D01*
X105759Y-33645D01*
X105924Y-33576D01*
X105955Y-33478D01*
X105955Y-37840D01*
X102755Y-37840D01*
X102622Y-37867D01*
X102509Y-37942D01*
X102509Y-37942D01*
X102453Y-37998D01*
X102453Y-37920D01*
X101943Y-37920D01*
X101943Y-37927D01*
X101843Y-37927D01*
X101843Y-37920D01*
X101835Y-37920D01*
X101835Y-37820D01*
X101843Y-37820D01*
X101843Y-37812D01*
X101943Y-37812D01*
X101943Y-37820D01*
X102453Y-37820D01*
X102453Y-37680D01*
X102391Y-37469D01*
X102254Y-37298D01*
X102062Y-37193D01*
X102293Y-36962D01*
X103149Y-36962D01*
X103149Y-36962D01*
X103149Y-36962D01*
X103260Y-36940D01*
X103282Y-36936D01*
X103282Y-36936D01*
X103395Y-36860D01*
X104864Y-35392D01*
X104864Y-35392D01*
X104864Y-35392D01*
X104940Y-35279D01*
X104966Y-35145D01*
X104966Y-33542D01*
X105109Y-33399D01*
X105118Y-33378D01*
X105210Y-33407D01*
X105547Y-33070D01*
X105210Y-32733D01*
X105118Y-32762D01*
X105110Y-32742D01*
X104947Y-32579D01*
X104733Y-32490D01*
X104503Y-32490D01*
X104289Y-32578D01*
X104126Y-32741D01*
X104038Y-32954D01*
X104038Y-33185D01*
X104126Y-33398D01*
X104269Y-33542D01*
X104269Y-35001D01*
X103278Y-35992D01*
X103330Y-35866D01*
X103331Y-35638D01*
X103331Y-32638D01*
X103243Y-32426D01*
X103082Y-32264D01*
X102870Y-32177D01*
X102642Y-32176D01*
X102430Y-32264D01*
X102291Y-32403D01*
X98496Y-32403D01*
X98357Y-32264D01*
X98146Y-32177D01*
X97917Y-32176D01*
X97706Y-32264D01*
X97544Y-32425D01*
X97506Y-32516D01*
X97506Y-31288D01*
X97347Y-30902D01*
X97052Y-30606D01*
X96666Y-30446D01*
X96248Y-30445D01*
X95862Y-30605D01*
X95567Y-30900D01*
X95406Y-31286D01*
X95406Y-31704D01*
X95566Y-32090D01*
X95861Y-32385D01*
X96246Y-32545D01*
X96664Y-32546D01*
X97050Y-32386D01*
X97346Y-32091D01*
X97506Y-31705D01*
X97506Y-31288D01*
X97506Y-32516D01*
X97456Y-32637D01*
X97456Y-32865D01*
X97543Y-33077D01*
X97705Y-33239D01*
X97916Y-33326D01*
X98145Y-33327D01*
X98356Y-33239D01*
X98496Y-33100D01*
X102291Y-33100D01*
X102429Y-33239D01*
X102641Y-33326D01*
X102869Y-33327D01*
X103081Y-33239D01*
X103243Y-33078D01*
X103330Y-32866D01*
X103331Y-32638D01*
X103331Y-35638D01*
X103243Y-35426D01*
X103082Y-35264D01*
X102870Y-35177D01*
X102642Y-35176D01*
X102430Y-35264D01*
X102291Y-35403D01*
X101750Y-35403D01*
X101418Y-35071D01*
X101418Y-34935D01*
X101339Y-34742D01*
X101191Y-34594D01*
X100998Y-34514D01*
X100789Y-34514D01*
X100596Y-34594D01*
X100448Y-34741D01*
X100393Y-34874D01*
X100339Y-34742D01*
X100191Y-34594D01*
X99998Y-34514D01*
X99789Y-34514D01*
X99596Y-34594D01*
X99448Y-34741D01*
X99368Y-34934D01*
X99368Y-35071D01*
X99036Y-35403D01*
X98496Y-35403D01*
X98357Y-35264D01*
X98146Y-35177D01*
X97917Y-35176D01*
X97706Y-35264D01*
X97544Y-35425D01*
X97456Y-35637D01*
X97456Y-35865D01*
X97543Y-36077D01*
X97705Y-36239D01*
X97916Y-36326D01*
X98145Y-36327D01*
X98356Y-36239D01*
X98496Y-36100D01*
X99181Y-36100D01*
X99181Y-36100D01*
X99181Y-36100D01*
X99292Y-36078D01*
X99314Y-36073D01*
X99314Y-36073D01*
X99427Y-35998D01*
X99545Y-35880D01*
X99545Y-37288D01*
X99497Y-37320D01*
X99393Y-37476D01*
X99289Y-37320D01*
X99108Y-37198D01*
X98893Y-37156D01*
X98679Y-37198D01*
X98497Y-37320D01*
X98376Y-37502D01*
X98333Y-37716D01*
X98333Y-37937D01*
X97749Y-38521D01*
X97244Y-38521D01*
X97148Y-38425D01*
X96955Y-38345D01*
X96746Y-38344D01*
X96553Y-38424D01*
X96456Y-38521D01*
X95275Y-38521D01*
X95179Y-38425D01*
X94986Y-38345D01*
X94777Y-38344D01*
X94584Y-38424D01*
X94437Y-38572D01*
X94356Y-38765D01*
X94356Y-38974D01*
X94436Y-39167D01*
X94584Y-39314D01*
X94710Y-39367D01*
X94609Y-39409D01*
X94584Y-39502D01*
X94881Y-39799D01*
X95178Y-39502D01*
X95154Y-39409D01*
X95044Y-39370D01*
X95178Y-39315D01*
X95275Y-39218D01*
X96456Y-39218D01*
X96552Y-39314D01*
X96679Y-39367D01*
X96577Y-39409D01*
X96553Y-39502D01*
X96850Y-39799D01*
X97147Y-39502D01*
X97123Y-39409D01*
X97013Y-39370D01*
X97147Y-39315D01*
X97244Y-39218D01*
X97893Y-39218D01*
X97893Y-39218D01*
X97893Y-39218D01*
X98004Y-39196D01*
X98027Y-39191D01*
X98027Y-39191D01*
X98140Y-39116D01*
X98709Y-38547D01*
X98893Y-38583D01*
X99078Y-38547D01*
X100147Y-39616D01*
X100147Y-39616D01*
X100260Y-39691D01*
X100393Y-39718D01*
X102362Y-39718D01*
X102362Y-39718D01*
X102362Y-39718D01*
X102473Y-39696D01*
X102495Y-39691D01*
X102495Y-39691D01*
X102608Y-39616D01*
X103006Y-39218D01*
X103543Y-39218D01*
X103639Y-39314D01*
X103765Y-39367D01*
X103664Y-39409D01*
X103639Y-39502D01*
X103937Y-39799D01*
X104234Y-39502D01*
X104209Y-39409D01*
X104099Y-39370D01*
X104234Y-39315D01*
X104331Y-39218D01*
X105511Y-39218D01*
X105607Y-39314D01*
X105734Y-39367D01*
X105632Y-39409D01*
X105608Y-39502D01*
X105905Y-39799D01*
X106202Y-39502D01*
X106178Y-39409D01*
X106068Y-39370D01*
X106162Y-39332D01*
X106738Y-39908D01*
X106738Y-40013D01*
X106435Y-40315D01*
X106435Y-39945D01*
X106424Y-39737D01*
X106366Y-39597D01*
X106273Y-39572D01*
X105976Y-39870D01*
X106273Y-40167D01*
X106366Y-40142D01*
X106435Y-39945D01*
X106435Y-40315D01*
X106202Y-40548D01*
X106202Y-40237D01*
X105905Y-39940D01*
X105834Y-40011D01*
X105834Y-39870D01*
X105537Y-39572D01*
X105444Y-39597D01*
X105375Y-39794D01*
X105386Y-40002D01*
X105444Y-40142D01*
X105537Y-40167D01*
X105834Y-39870D01*
X105834Y-40011D01*
X105608Y-40237D01*
X105632Y-40330D01*
X105829Y-40399D01*
X106038Y-40388D01*
X106178Y-40330D01*
X106202Y-40237D01*
X106202Y-40548D01*
X106154Y-40596D01*
X105118Y-40596D01*
X105118Y-40596D01*
X104984Y-40622D01*
X104871Y-40698D01*
X104871Y-40698D01*
X104466Y-41103D01*
X104466Y-39945D01*
X104455Y-39737D01*
X104397Y-39597D01*
X104304Y-39572D01*
X104007Y-39870D01*
X104304Y-40167D01*
X104397Y-40142D01*
X104466Y-39945D01*
X104466Y-41103D01*
X104234Y-41336D01*
X104234Y-40237D01*
X103937Y-39940D01*
X103866Y-40011D01*
X103866Y-39870D01*
X103569Y-39572D01*
X103476Y-39597D01*
X103407Y-39794D01*
X103418Y-40002D01*
X103476Y-40142D01*
X103569Y-40167D01*
X103866Y-39870D01*
X103866Y-40011D01*
X103639Y-40237D01*
X103664Y-40330D01*
X103861Y-40399D01*
X104069Y-40388D01*
X104209Y-40330D01*
X104234Y-40237D01*
X104234Y-41336D01*
X102453Y-43116D01*
X102453Y-41060D01*
X102453Y-40920D01*
X102453Y-40820D01*
X102453Y-40680D01*
X102391Y-40469D01*
X102254Y-40298D01*
X102061Y-40193D01*
X102030Y-40187D01*
X101943Y-40235D01*
X101943Y-40820D01*
X102453Y-40820D01*
X102453Y-40920D01*
X101943Y-40920D01*
X101943Y-41505D01*
X102030Y-41553D01*
X102061Y-41546D01*
X102254Y-41441D01*
X102391Y-41270D01*
X102453Y-41060D01*
X102453Y-43116D01*
X102115Y-43454D01*
X102040Y-43567D01*
X102035Y-43589D01*
X102013Y-43700D01*
X102013Y-43700D01*
X102013Y-45131D01*
X101703Y-45441D01*
X101756Y-45315D01*
X101756Y-45086D01*
X101668Y-44875D01*
X101507Y-44713D01*
X101295Y-44625D01*
X101067Y-44625D01*
X100855Y-44713D01*
X100716Y-44852D01*
X98692Y-44852D01*
X98554Y-44713D01*
X98343Y-44625D01*
X98114Y-44625D01*
X97903Y-44713D01*
X97741Y-44874D01*
X97653Y-45085D01*
X97653Y-45314D01*
X97740Y-45526D01*
X97902Y-45687D01*
X98113Y-45775D01*
X98342Y-45775D01*
X98553Y-45688D01*
X98693Y-45549D01*
X100716Y-45549D01*
X100854Y-45687D01*
X101066Y-45775D01*
X101294Y-45775D01*
X101421Y-45723D01*
X100364Y-46780D01*
X100182Y-46704D01*
X99983Y-46704D01*
X99983Y-46399D01*
X99907Y-46194D01*
X99758Y-46034D01*
X99613Y-45958D01*
X99522Y-45999D01*
X99483Y-46443D01*
X99927Y-46482D01*
X99983Y-46399D01*
X99983Y-46704D01*
X99963Y-46704D01*
X99936Y-46715D01*
X99959Y-46672D01*
X99919Y-46581D01*
X99562Y-46550D01*
X99505Y-46494D01*
X99435Y-46565D01*
X99469Y-46599D01*
X99436Y-46986D01*
X99518Y-47042D01*
X99573Y-47021D01*
X99522Y-47144D01*
X99522Y-47363D01*
X99605Y-47565D01*
X99760Y-47720D01*
X99962Y-47804D01*
X100181Y-47804D01*
X100215Y-47790D01*
X100165Y-47910D01*
X100164Y-48129D01*
X100248Y-48331D01*
X100354Y-48438D01*
X99422Y-48438D01*
X99422Y-45990D01*
X99340Y-45935D01*
X99135Y-46011D01*
X98975Y-46160D01*
X98899Y-46305D01*
X98940Y-46395D01*
X99384Y-46434D01*
X99422Y-45990D01*
X99422Y-48438D01*
X99375Y-48438D01*
X99375Y-46534D01*
X98931Y-46495D01*
X98875Y-46577D01*
X98951Y-46782D01*
X99100Y-46943D01*
X99245Y-47018D01*
X99336Y-46978D01*
X99375Y-46534D01*
X99375Y-48438D01*
X98931Y-48438D01*
X97490Y-46997D01*
X97377Y-46922D01*
X97355Y-46917D01*
X97244Y-46895D01*
X97244Y-46895D01*
X95419Y-46895D01*
X94836Y-46312D01*
X94836Y-46090D01*
X94863Y-46175D01*
X95080Y-46253D01*
X95310Y-46243D01*
X95475Y-46175D01*
X95506Y-46076D01*
X95169Y-45740D01*
X95163Y-45745D01*
X95093Y-45674D01*
X95098Y-45669D01*
X95093Y-45663D01*
X95163Y-45593D01*
X95169Y-45598D01*
X95506Y-45261D01*
X95475Y-45163D01*
X95258Y-45084D01*
X95027Y-45095D01*
X94863Y-45163D01*
X94836Y-45248D01*
X94836Y-44345D01*
X96030Y-43150D01*
X96166Y-43151D01*
X96359Y-43071D01*
X96507Y-42923D01*
X96587Y-42730D01*
X96588Y-42593D01*
X96632Y-42549D01*
X97763Y-42549D01*
X97902Y-42687D01*
X98113Y-42775D01*
X98342Y-42775D01*
X98553Y-42688D01*
X98715Y-42526D01*
X98803Y-42315D01*
X98803Y-42118D01*
X99140Y-41781D01*
X99140Y-41781D01*
X99140Y-41781D01*
X99215Y-41668D01*
X99235Y-41570D01*
X99253Y-41570D01*
X99345Y-41532D01*
X99415Y-41461D01*
X99453Y-41370D01*
X99453Y-41353D01*
X99497Y-41419D01*
X99545Y-41451D01*
X99545Y-41800D01*
X96256Y-45089D01*
X96054Y-45089D01*
X95841Y-45177D01*
X95677Y-45340D01*
X95669Y-45361D01*
X95576Y-45332D01*
X95240Y-45669D01*
X95576Y-46006D01*
X95668Y-45977D01*
X95677Y-45997D01*
X95840Y-46160D01*
X96053Y-46249D01*
X96284Y-46249D01*
X96497Y-46161D01*
X96660Y-45998D01*
X96749Y-45785D01*
X96749Y-45581D01*
X100140Y-42191D01*
X100140Y-42191D01*
X100140Y-42191D01*
X100215Y-42078D01*
X100242Y-41944D01*
X100242Y-41711D01*
X100609Y-42078D01*
X100606Y-42085D01*
X100606Y-42314D01*
X100693Y-42526D01*
X100854Y-42687D01*
X101066Y-42775D01*
X101294Y-42775D01*
X101506Y-42688D01*
X101668Y-42526D01*
X101756Y-42315D01*
X101756Y-42086D01*
X101668Y-41875D01*
X101507Y-41713D01*
X101295Y-41625D01*
X101142Y-41625D01*
X101062Y-41546D01*
X101254Y-41441D01*
X101391Y-41270D01*
X101393Y-41264D01*
X101395Y-41270D01*
X101533Y-41441D01*
X101725Y-41546D01*
X101757Y-41553D01*
X101843Y-41505D01*
X101843Y-40920D01*
X101843Y-40820D01*
X101843Y-40235D01*
X101757Y-40187D01*
X101725Y-40193D01*
X101533Y-40298D01*
X101395Y-40469D01*
X101393Y-40475D01*
X101391Y-40469D01*
X101254Y-40298D01*
X101061Y-40193D01*
X101030Y-40187D01*
X100943Y-40235D01*
X100943Y-40820D01*
X101333Y-40820D01*
X101453Y-40820D01*
X101843Y-40820D01*
X101843Y-40920D01*
X101453Y-40920D01*
X101333Y-40920D01*
X100943Y-40920D01*
X100943Y-40927D01*
X100843Y-40927D01*
X100843Y-40920D01*
X100835Y-40920D01*
X100835Y-40820D01*
X100843Y-40820D01*
X100843Y-40235D01*
X100757Y-40187D01*
X100725Y-40193D01*
X100533Y-40298D01*
X100395Y-40469D01*
X100393Y-40475D01*
X100289Y-40320D01*
X100166Y-40238D01*
X100166Y-40238D01*
X100140Y-40198D01*
X100140Y-40198D01*
X99458Y-39517D01*
X99345Y-39441D01*
X99323Y-39437D01*
X99212Y-39415D01*
X99212Y-39415D01*
X98425Y-39415D01*
X98425Y-39415D01*
X98291Y-39441D01*
X98178Y-39517D01*
X98178Y-39517D01*
X97380Y-40315D01*
X97380Y-39945D01*
X97368Y-39737D01*
X97310Y-39597D01*
X97218Y-39572D01*
X96921Y-39870D01*
X97218Y-40167D01*
X97310Y-40142D01*
X97380Y-39945D01*
X97380Y-40315D01*
X97147Y-40548D01*
X97147Y-40237D01*
X96850Y-39940D01*
X96779Y-40011D01*
X96779Y-39870D01*
X96482Y-39572D01*
X96389Y-39597D01*
X96320Y-39794D01*
X96331Y-40002D01*
X96389Y-40142D01*
X96482Y-40167D01*
X96779Y-39870D01*
X96779Y-40011D01*
X96553Y-40237D01*
X96577Y-40330D01*
X96774Y-40399D01*
X96983Y-40388D01*
X97123Y-40330D01*
X97147Y-40237D01*
X97147Y-40548D01*
X96437Y-41258D01*
X96360Y-41181D01*
X96167Y-41101D01*
X95959Y-41100D01*
X95765Y-41180D01*
X95618Y-41328D01*
X95538Y-41521D01*
X95537Y-41729D01*
X95617Y-41922D01*
X95765Y-42070D01*
X95898Y-42126D01*
X95765Y-42180D01*
X95618Y-42328D01*
X95538Y-42521D01*
X95537Y-42658D01*
X95411Y-42784D01*
X95411Y-39945D01*
X95400Y-39737D01*
X95342Y-39597D01*
X95249Y-39572D01*
X94952Y-39870D01*
X95249Y-40167D01*
X95342Y-40142D01*
X95411Y-39945D01*
X95411Y-42784D01*
X95178Y-43017D01*
X95178Y-40237D01*
X94881Y-39940D01*
X94811Y-40011D01*
X94811Y-39870D01*
X94514Y-39572D01*
X94421Y-39597D01*
X94351Y-39794D01*
X94363Y-40002D01*
X94421Y-40142D01*
X94514Y-40167D01*
X94811Y-39870D01*
X94811Y-40011D01*
X94584Y-40237D01*
X94609Y-40330D01*
X94806Y-40399D01*
X95014Y-40388D01*
X95154Y-40330D01*
X95178Y-40237D01*
X95178Y-43017D01*
X94241Y-43954D01*
X94166Y-44067D01*
X94161Y-44089D01*
X94139Y-44200D01*
X94139Y-44200D01*
X94139Y-46456D01*
X94139Y-46456D01*
X94161Y-46567D01*
X94166Y-46590D01*
X94241Y-46703D01*
X95029Y-47490D01*
X95029Y-47490D01*
X95142Y-47565D01*
X95275Y-47592D01*
X95275Y-47592D01*
X95275Y-47592D01*
X97099Y-47592D01*
X98540Y-49033D01*
X98540Y-49033D01*
X98653Y-49108D01*
X98786Y-49135D01*
X98786Y-49135D01*
X98786Y-49135D01*
X100932Y-49135D01*
X101161Y-49408D01*
X101249Y-49454D01*
X101348Y-49462D01*
X101443Y-49433D01*
X101519Y-49369D01*
X101979Y-48983D01*
X102025Y-48895D01*
X102033Y-48796D01*
X102004Y-48701D01*
X101940Y-48625D01*
X101554Y-48165D01*
X101466Y-48119D01*
X101367Y-48110D01*
X101272Y-48140D01*
X101254Y-48155D01*
X101264Y-48130D01*
X101265Y-47911D01*
X101189Y-47728D01*
X103002Y-45915D01*
X103002Y-45915D01*
X103002Y-45915D01*
X103077Y-45802D01*
X103104Y-45669D01*
X103104Y-45669D01*
X103104Y-45669D01*
X103104Y-44238D01*
X105656Y-41687D01*
X106692Y-41687D01*
X106692Y-41687D01*
X106692Y-41687D01*
X106804Y-41664D01*
X106826Y-41660D01*
X106826Y-41660D01*
X106939Y-41584D01*
X107726Y-40797D01*
X107726Y-40797D01*
X107726Y-40797D01*
X107802Y-40684D01*
X107828Y-40551D01*
X107828Y-40551D01*
X107828Y-41382D01*
X106101Y-43109D01*
X106040Y-43200D01*
X106019Y-43307D01*
X106019Y-45947D01*
X105380Y-46586D01*
X105380Y-45067D01*
X105221Y-44681D01*
X104926Y-44385D01*
X104540Y-44225D01*
X104122Y-44225D01*
X103736Y-44384D01*
X103441Y-44680D01*
X103280Y-45065D01*
X103280Y-45483D01*
X103440Y-45869D01*
X103735Y-46165D01*
X104120Y-46325D01*
X104538Y-46325D01*
X104924Y-46166D01*
X105220Y-45871D01*
X105380Y-45485D01*
X105380Y-45067D01*
X105380Y-46586D01*
X102246Y-49720D01*
X96966Y-49720D01*
X93569Y-46324D01*
X93569Y-43099D01*
X93410Y-42713D01*
X93115Y-42417D01*
X92729Y-42257D01*
X92311Y-42256D01*
X91925Y-42416D01*
X91630Y-42711D01*
X91469Y-43097D01*
X91469Y-43515D01*
X91629Y-43901D01*
X91924Y-44196D01*
X92309Y-44356D01*
X92727Y-44357D01*
X93113Y-44197D01*
X93409Y-43902D01*
X93569Y-43516D01*
X93569Y-43099D01*
X93569Y-46324D01*
X91224Y-43978D01*
X91224Y-42635D01*
X93504Y-40355D01*
X93565Y-40264D01*
X93586Y-40157D01*
X93586Y-37517D01*
X95079Y-36024D01*
X95140Y-35933D01*
X95161Y-35826D01*
X95161Y-30824D01*
X96572Y-29413D01*
X104214Y-29413D01*
X107200Y-32399D01*
X107200Y-37401D01*
X107222Y-37508D01*
X107282Y-37599D01*
X108381Y-38698D01*
X108381Y-40829D01*
M02*
