G04 (created by PCBNEW (2013-07-07 BZR 4022)-stable) date 21/01/2014 20:06:06*
%MOIN*%
G04 Gerber Fmt 3.4, Leading zero omitted, Abs format*
%FSLAX34Y34*%
G01*
G70*
G90*
G04 APERTURE LIST*
%ADD10C,0.00590551*%
G04 APERTURE END LIST*
G54D10*
G36*
X61203Y-48779D02*
X61201Y-48871D01*
X61179Y-48970D01*
X61147Y-49042D01*
X61088Y-49125D01*
X61031Y-49179D01*
X60945Y-49234D01*
X60872Y-49263D01*
X60771Y-49280D01*
X60693Y-49279D01*
X60593Y-49257D01*
X60521Y-49226D01*
X60437Y-49167D01*
X60383Y-49111D01*
X60327Y-49024D01*
X60298Y-48952D01*
X60280Y-48850D01*
X60281Y-48774D01*
X60302Y-48672D01*
X60333Y-48601D01*
X60392Y-48515D01*
X60446Y-48462D01*
X60534Y-48405D01*
X60604Y-48376D01*
X60707Y-48357D01*
X60783Y-48357D01*
X60886Y-48378D01*
X60955Y-48408D01*
X61043Y-48467D01*
X61096Y-48520D01*
X61154Y-48608D01*
X61183Y-48677D01*
X61203Y-48779D01*
X61203Y-48779D01*
G37*
G36*
X61203Y-50748D02*
X61201Y-50839D01*
X61179Y-50938D01*
X61147Y-51010D01*
X61088Y-51094D01*
X61031Y-51148D01*
X60945Y-51203D01*
X60872Y-51231D01*
X60771Y-51249D01*
X60693Y-51247D01*
X60593Y-51225D01*
X60521Y-51194D01*
X60437Y-51135D01*
X60383Y-51079D01*
X60327Y-50993D01*
X60298Y-50921D01*
X60280Y-50819D01*
X60281Y-50742D01*
X60302Y-50640D01*
X60333Y-50570D01*
X60392Y-50484D01*
X60446Y-50431D01*
X60534Y-50373D01*
X60604Y-50345D01*
X60707Y-50325D01*
X60783Y-50326D01*
X60886Y-50347D01*
X60955Y-50376D01*
X61043Y-50435D01*
X61096Y-50488D01*
X61154Y-50576D01*
X61183Y-50646D01*
X61203Y-50748D01*
X61203Y-50748D01*
G37*
G36*
X63749Y-47399D02*
X63748Y-47496D01*
X63724Y-47600D01*
X63690Y-47676D01*
X63629Y-47764D01*
X63568Y-47821D01*
X63478Y-47879D01*
X63400Y-47909D01*
X63295Y-47927D01*
X63212Y-47926D01*
X63106Y-47903D01*
X63031Y-47870D01*
X62942Y-47808D01*
X62885Y-47749D01*
X62826Y-47658D01*
X62796Y-47581D01*
X62776Y-47475D01*
X62778Y-47393D01*
X62800Y-47286D01*
X62832Y-47211D01*
X62894Y-47121D01*
X62952Y-47065D01*
X63044Y-47005D01*
X63119Y-46974D01*
X63226Y-46954D01*
X63307Y-46954D01*
X63415Y-46976D01*
X63489Y-47008D01*
X63580Y-47069D01*
X63637Y-47126D01*
X63698Y-47218D01*
X63728Y-47292D01*
X63749Y-47399D01*
X63749Y-47399D01*
G37*
G36*
X64746Y-56259D02*
X64745Y-56351D01*
X64722Y-56450D01*
X64690Y-56522D01*
X64631Y-56606D01*
X64575Y-56660D01*
X64488Y-56715D01*
X64415Y-56743D01*
X64314Y-56761D01*
X64236Y-56759D01*
X64136Y-56737D01*
X64065Y-56706D01*
X63980Y-56647D01*
X63926Y-56591D01*
X63870Y-56504D01*
X63842Y-56433D01*
X63823Y-56331D01*
X63824Y-56254D01*
X63846Y-56152D01*
X63876Y-56082D01*
X63935Y-55996D01*
X63989Y-55942D01*
X64077Y-55885D01*
X64147Y-55857D01*
X64250Y-55837D01*
X64326Y-55838D01*
X64429Y-55859D01*
X64499Y-55888D01*
X64586Y-55947D01*
X64639Y-56000D01*
X64697Y-56088D01*
X64726Y-56157D01*
X64746Y-56259D01*
X64746Y-56259D01*
G37*
G36*
X64746Y-58228D02*
X64745Y-58320D01*
X64722Y-58419D01*
X64690Y-58491D01*
X64631Y-58574D01*
X64575Y-58628D01*
X64488Y-58683D01*
X64415Y-58711D01*
X64314Y-58729D01*
X64236Y-58728D01*
X64136Y-58705D01*
X64065Y-58674D01*
X63980Y-58616D01*
X63926Y-58560D01*
X63870Y-58473D01*
X63842Y-58401D01*
X63823Y-58299D01*
X63824Y-58222D01*
X63846Y-58121D01*
X63876Y-58050D01*
X63935Y-57964D01*
X63989Y-57911D01*
X64077Y-57854D01*
X64147Y-57825D01*
X64250Y-57806D01*
X64326Y-57806D01*
X64429Y-57827D01*
X64499Y-57856D01*
X64586Y-57915D01*
X64639Y-57969D01*
X64697Y-58057D01*
X64726Y-58126D01*
X64746Y-58228D01*
X64746Y-58228D01*
G37*
G36*
X65703Y-48779D02*
X65701Y-48871D01*
X65679Y-48970D01*
X65647Y-49042D01*
X65588Y-49125D01*
X65531Y-49179D01*
X65445Y-49234D01*
X65372Y-49263D01*
X65271Y-49280D01*
X65193Y-49279D01*
X65093Y-49257D01*
X65021Y-49226D01*
X64937Y-49167D01*
X64883Y-49111D01*
X64827Y-49024D01*
X64798Y-48952D01*
X64780Y-48850D01*
X64781Y-48774D01*
X64802Y-48672D01*
X64833Y-48601D01*
X64892Y-48515D01*
X64946Y-48462D01*
X65034Y-48405D01*
X65104Y-48376D01*
X65207Y-48357D01*
X65283Y-48357D01*
X65386Y-48378D01*
X65455Y-48408D01*
X65543Y-48467D01*
X65596Y-48520D01*
X65654Y-48608D01*
X65683Y-48677D01*
X65703Y-48779D01*
X65703Y-48779D01*
G37*
G36*
X65703Y-50748D02*
X65701Y-50839D01*
X65679Y-50938D01*
X65647Y-51010D01*
X65588Y-51094D01*
X65531Y-51148D01*
X65445Y-51203D01*
X65372Y-51231D01*
X65271Y-51249D01*
X65193Y-51247D01*
X65093Y-51225D01*
X65021Y-51194D01*
X64937Y-51135D01*
X64883Y-51079D01*
X64827Y-50993D01*
X64798Y-50921D01*
X64780Y-50819D01*
X64781Y-50742D01*
X64802Y-50640D01*
X64833Y-50570D01*
X64892Y-50484D01*
X64946Y-50431D01*
X65034Y-50373D01*
X65104Y-50345D01*
X65207Y-50325D01*
X65283Y-50326D01*
X65386Y-50347D01*
X65455Y-50376D01*
X65543Y-50435D01*
X65596Y-50488D01*
X65654Y-50576D01*
X65683Y-50646D01*
X65703Y-50748D01*
X65703Y-50748D01*
G37*
G36*
X66749Y-47399D02*
X66748Y-47496D01*
X66724Y-47600D01*
X66690Y-47676D01*
X66629Y-47764D01*
X66568Y-47821D01*
X66478Y-47879D01*
X66400Y-47909D01*
X66295Y-47927D01*
X66212Y-47926D01*
X66106Y-47903D01*
X66031Y-47870D01*
X65942Y-47808D01*
X65885Y-47749D01*
X65826Y-47658D01*
X65796Y-47581D01*
X65776Y-47475D01*
X65778Y-47393D01*
X65800Y-47286D01*
X65832Y-47211D01*
X65894Y-47121D01*
X65952Y-47065D01*
X66044Y-47005D01*
X66119Y-46974D01*
X66226Y-46954D01*
X66307Y-46954D01*
X66415Y-46976D01*
X66489Y-47008D01*
X66580Y-47069D01*
X66637Y-47126D01*
X66698Y-47218D01*
X66728Y-47292D01*
X66749Y-47399D01*
X66749Y-47399D01*
G37*
G36*
X66899Y-53501D02*
X66898Y-53598D01*
X66874Y-53702D01*
X66840Y-53779D01*
X66778Y-53866D01*
X66718Y-53924D01*
X66627Y-53981D01*
X66550Y-54011D01*
X66444Y-54030D01*
X66361Y-54028D01*
X66256Y-54005D01*
X66180Y-53972D01*
X66092Y-53910D01*
X66034Y-53851D01*
X65976Y-53760D01*
X65946Y-53684D01*
X65926Y-53577D01*
X65927Y-53495D01*
X65950Y-53389D01*
X65982Y-53314D01*
X66044Y-53224D01*
X66102Y-53167D01*
X66193Y-53107D01*
X66268Y-53077D01*
X66376Y-53056D01*
X66457Y-53057D01*
X66564Y-53079D01*
X66638Y-53110D01*
X66730Y-53172D01*
X66786Y-53228D01*
X66847Y-53320D01*
X66878Y-53394D01*
X66899Y-53501D01*
X66899Y-53501D01*
G37*
G36*
X68486Y-48779D02*
X68485Y-48871D01*
X68462Y-48970D01*
X68430Y-49042D01*
X68372Y-49125D01*
X68315Y-49179D01*
X68228Y-49234D01*
X68155Y-49263D01*
X68054Y-49280D01*
X67976Y-49279D01*
X67876Y-49257D01*
X67805Y-49226D01*
X67720Y-49167D01*
X67666Y-49111D01*
X67610Y-49024D01*
X67582Y-48952D01*
X67563Y-48850D01*
X67564Y-48774D01*
X67586Y-48672D01*
X67616Y-48601D01*
X67675Y-48515D01*
X67730Y-48462D01*
X67817Y-48405D01*
X67887Y-48376D01*
X67990Y-48357D01*
X68066Y-48357D01*
X68169Y-48378D01*
X68239Y-48408D01*
X68326Y-48467D01*
X68379Y-48520D01*
X68438Y-48608D01*
X68466Y-48677D01*
X68486Y-48779D01*
X68486Y-48779D01*
G37*
G36*
X68486Y-50748D02*
X68485Y-50839D01*
X68462Y-50938D01*
X68430Y-51010D01*
X68372Y-51094D01*
X68315Y-51148D01*
X68228Y-51203D01*
X68155Y-51231D01*
X68054Y-51249D01*
X67976Y-51247D01*
X67876Y-51225D01*
X67805Y-51194D01*
X67720Y-51135D01*
X67666Y-51079D01*
X67610Y-50993D01*
X67582Y-50921D01*
X67563Y-50819D01*
X67564Y-50742D01*
X67586Y-50640D01*
X67616Y-50570D01*
X67675Y-50484D01*
X67730Y-50431D01*
X67817Y-50373D01*
X67887Y-50345D01*
X67990Y-50325D01*
X68066Y-50326D01*
X68169Y-50347D01*
X68239Y-50376D01*
X68326Y-50435D01*
X68379Y-50488D01*
X68438Y-50576D01*
X68466Y-50646D01*
X68486Y-50748D01*
X68486Y-50748D01*
G37*
G36*
X69246Y-56259D02*
X69245Y-56351D01*
X69222Y-56450D01*
X69190Y-56522D01*
X69131Y-56606D01*
X69075Y-56660D01*
X68988Y-56715D01*
X68915Y-56743D01*
X68814Y-56761D01*
X68736Y-56759D01*
X68636Y-56737D01*
X68565Y-56706D01*
X68480Y-56647D01*
X68426Y-56591D01*
X68370Y-56504D01*
X68342Y-56433D01*
X68323Y-56331D01*
X68324Y-56254D01*
X68346Y-56152D01*
X68376Y-56082D01*
X68435Y-55996D01*
X68489Y-55942D01*
X68577Y-55885D01*
X68647Y-55857D01*
X68750Y-55837D01*
X68826Y-55838D01*
X68929Y-55859D01*
X68999Y-55888D01*
X69086Y-55947D01*
X69139Y-56000D01*
X69197Y-56088D01*
X69226Y-56157D01*
X69246Y-56259D01*
X69246Y-56259D01*
G37*
G36*
X69246Y-58228D02*
X69245Y-58320D01*
X69222Y-58419D01*
X69190Y-58491D01*
X69131Y-58574D01*
X69075Y-58628D01*
X68988Y-58683D01*
X68915Y-58711D01*
X68814Y-58729D01*
X68736Y-58728D01*
X68636Y-58705D01*
X68565Y-58674D01*
X68480Y-58616D01*
X68426Y-58560D01*
X68370Y-58473D01*
X68342Y-58401D01*
X68323Y-58299D01*
X68324Y-58222D01*
X68346Y-58121D01*
X68376Y-58050D01*
X68435Y-57964D01*
X68489Y-57911D01*
X68577Y-57854D01*
X68647Y-57825D01*
X68750Y-57806D01*
X68826Y-57806D01*
X68929Y-57827D01*
X68999Y-57856D01*
X69086Y-57915D01*
X69139Y-57969D01*
X69197Y-58057D01*
X69226Y-58126D01*
X69246Y-58228D01*
X69246Y-58228D01*
G37*
G36*
X69899Y-53501D02*
X69898Y-53598D01*
X69874Y-53702D01*
X69840Y-53779D01*
X69778Y-53866D01*
X69718Y-53924D01*
X69627Y-53981D01*
X69550Y-54011D01*
X69444Y-54030D01*
X69361Y-54028D01*
X69256Y-54005D01*
X69180Y-53972D01*
X69092Y-53910D01*
X69034Y-53851D01*
X68976Y-53760D01*
X68946Y-53684D01*
X68926Y-53577D01*
X68927Y-53495D01*
X68950Y-53389D01*
X68982Y-53314D01*
X69044Y-53224D01*
X69102Y-53167D01*
X69193Y-53107D01*
X69268Y-53077D01*
X69376Y-53056D01*
X69457Y-53057D01*
X69564Y-53079D01*
X69638Y-53110D01*
X69730Y-53172D01*
X69786Y-53228D01*
X69847Y-53320D01*
X69878Y-53394D01*
X69899Y-53501D01*
X69899Y-53501D01*
G37*
G36*
X72159Y-57195D02*
X71544Y-57810D01*
X70929Y-57195D01*
X71544Y-56580D01*
X72159Y-57195D01*
X72159Y-57195D01*
G37*
G36*
X72228Y-57261D02*
X72228Y-57261D01*
X72206Y-57239D01*
X72228Y-57261D01*
X72228Y-57261D01*
X72228Y-57261D01*
G37*
G36*
X72686Y-56445D02*
X72685Y-56543D01*
X72666Y-56626D01*
X72631Y-56704D01*
X72582Y-56773D01*
X72520Y-56832D01*
X72448Y-56878D01*
X72369Y-56909D01*
X72285Y-56924D01*
X72200Y-56922D01*
X72116Y-56904D01*
X72038Y-56869D01*
X71968Y-56821D01*
X71909Y-56759D01*
X71863Y-56688D01*
X71831Y-56608D01*
X71816Y-56524D01*
X71817Y-56439D01*
X71835Y-56356D01*
X71868Y-56277D01*
X71917Y-56207D01*
X71977Y-56147D01*
X72049Y-56100D01*
X72128Y-56068D01*
X72212Y-56052D01*
X72297Y-56053D01*
X72381Y-56070D01*
X72459Y-56103D01*
X72530Y-56151D01*
X72590Y-56212D01*
X72637Y-56283D01*
X72670Y-56361D01*
X72686Y-56445D01*
X72686Y-56445D01*
G37*
G36*
X72986Y-48779D02*
X72985Y-48871D01*
X72962Y-48970D01*
X72930Y-49042D01*
X72872Y-49125D01*
X72815Y-49179D01*
X72728Y-49234D01*
X72655Y-49263D01*
X72554Y-49280D01*
X72476Y-49279D01*
X72376Y-49257D01*
X72305Y-49226D01*
X72220Y-49167D01*
X72166Y-49111D01*
X72110Y-49024D01*
X72082Y-48952D01*
X72063Y-48850D01*
X72064Y-48774D01*
X72086Y-48672D01*
X72116Y-48601D01*
X72175Y-48515D01*
X72230Y-48462D01*
X72317Y-48405D01*
X72387Y-48376D01*
X72490Y-48357D01*
X72566Y-48357D01*
X72669Y-48378D01*
X72739Y-48408D01*
X72826Y-48467D01*
X72879Y-48520D01*
X72938Y-48608D01*
X72966Y-48677D01*
X72986Y-48779D01*
X72986Y-48779D01*
G37*
G36*
X72986Y-50748D02*
X72985Y-50839D01*
X72962Y-50938D01*
X72930Y-51010D01*
X72872Y-51094D01*
X72815Y-51148D01*
X72728Y-51203D01*
X72655Y-51231D01*
X72554Y-51249D01*
X72476Y-51247D01*
X72376Y-51225D01*
X72305Y-51194D01*
X72220Y-51135D01*
X72166Y-51079D01*
X72110Y-50993D01*
X72082Y-50921D01*
X72063Y-50819D01*
X72064Y-50742D01*
X72086Y-50640D01*
X72116Y-50570D01*
X72175Y-50484D01*
X72230Y-50431D01*
X72317Y-50373D01*
X72387Y-50345D01*
X72490Y-50325D01*
X72566Y-50326D01*
X72669Y-50347D01*
X72739Y-50376D01*
X72826Y-50435D01*
X72879Y-50488D01*
X72938Y-50576D01*
X72966Y-50646D01*
X72986Y-50748D01*
X72986Y-50748D01*
G37*
G36*
X73393Y-55738D02*
X73392Y-55835D01*
X73373Y-55919D01*
X73339Y-55997D01*
X73289Y-56066D01*
X73228Y-56125D01*
X73156Y-56171D01*
X73076Y-56202D01*
X72992Y-56216D01*
X72907Y-56215D01*
X72823Y-56196D01*
X72745Y-56162D01*
X72675Y-56114D01*
X72616Y-56052D01*
X72570Y-55980D01*
X72538Y-55901D01*
X72523Y-55817D01*
X72524Y-55732D01*
X72542Y-55649D01*
X72575Y-55570D01*
X72624Y-55500D01*
X72685Y-55440D01*
X72756Y-55393D01*
X72835Y-55361D01*
X72919Y-55345D01*
X73004Y-55346D01*
X73088Y-55363D01*
X73166Y-55396D01*
X73237Y-55444D01*
X73297Y-55504D01*
X73344Y-55575D01*
X73377Y-55654D01*
X73393Y-55738D01*
X73393Y-55738D01*
G37*
G36*
X74101Y-55031D02*
X74099Y-55128D01*
X74080Y-55212D01*
X74046Y-55289D01*
X73996Y-55359D01*
X73935Y-55418D01*
X73863Y-55464D01*
X73783Y-55495D01*
X73699Y-55509D01*
X73614Y-55508D01*
X73531Y-55489D01*
X73452Y-55455D01*
X73382Y-55406D01*
X73323Y-55345D01*
X73277Y-55273D01*
X73245Y-55194D01*
X73230Y-55110D01*
X73231Y-55025D01*
X73249Y-54941D01*
X73283Y-54863D01*
X73331Y-54793D01*
X73392Y-54733D01*
X73463Y-54686D01*
X73542Y-54654D01*
X73626Y-54638D01*
X73711Y-54639D01*
X73795Y-54656D01*
X73873Y-54689D01*
X73944Y-54737D01*
X74004Y-54797D01*
X74052Y-54868D01*
X74084Y-54947D01*
X74101Y-55031D01*
X74101Y-55031D01*
G37*
G36*
X74379Y-48777D02*
X74378Y-48874D01*
X74354Y-48978D01*
X74320Y-49054D01*
X74259Y-49142D01*
X74198Y-49199D01*
X74108Y-49257D01*
X74030Y-49287D01*
X73924Y-49305D01*
X73842Y-49304D01*
X73736Y-49281D01*
X73661Y-49247D01*
X73572Y-49186D01*
X73515Y-49127D01*
X73456Y-49036D01*
X73426Y-48959D01*
X73406Y-48853D01*
X73407Y-48771D01*
X73430Y-48664D01*
X73462Y-48589D01*
X73524Y-48499D01*
X73582Y-48442D01*
X73673Y-48383D01*
X73749Y-48352D01*
X73856Y-48332D01*
X73937Y-48332D01*
X74045Y-48354D01*
X74119Y-48386D01*
X74210Y-48447D01*
X74267Y-48504D01*
X74328Y-48596D01*
X74358Y-48670D01*
X74379Y-48777D01*
X74379Y-48777D01*
G37*
G36*
X74808Y-54324D02*
X74806Y-54421D01*
X74787Y-54504D01*
X74753Y-54582D01*
X74704Y-54652D01*
X74642Y-54711D01*
X74570Y-54757D01*
X74490Y-54787D01*
X74406Y-54802D01*
X74321Y-54800D01*
X74238Y-54782D01*
X74159Y-54748D01*
X74089Y-54699D01*
X74030Y-54638D01*
X73984Y-54566D01*
X73953Y-54487D01*
X73937Y-54403D01*
X73938Y-54318D01*
X73956Y-54234D01*
X73990Y-54156D01*
X74038Y-54086D01*
X74099Y-54026D01*
X74170Y-53979D01*
X74249Y-53947D01*
X74333Y-53931D01*
X74418Y-53932D01*
X74502Y-53949D01*
X74581Y-53982D01*
X74651Y-54030D01*
X74711Y-54090D01*
X74759Y-54161D01*
X74791Y-54240D01*
X74808Y-54324D01*
X74808Y-54324D01*
G37*
G36*
X75515Y-53617D02*
X75513Y-53714D01*
X75495Y-53797D01*
X75460Y-53875D01*
X75411Y-53945D01*
X75349Y-54004D01*
X75277Y-54050D01*
X75197Y-54080D01*
X75113Y-54095D01*
X75028Y-54093D01*
X74945Y-54075D01*
X74867Y-54041D01*
X74796Y-53992D01*
X74737Y-53931D01*
X74691Y-53859D01*
X74660Y-53780D01*
X74644Y-53696D01*
X74645Y-53611D01*
X74663Y-53527D01*
X74697Y-53449D01*
X74745Y-53378D01*
X74806Y-53319D01*
X74877Y-53272D01*
X74956Y-53240D01*
X75040Y-53224D01*
X75125Y-53225D01*
X75209Y-53242D01*
X75288Y-53275D01*
X75358Y-53323D01*
X75419Y-53383D01*
X75466Y-53454D01*
X75498Y-53533D01*
X75515Y-53617D01*
X75515Y-53617D01*
G37*
G36*
X76222Y-52910D02*
X76221Y-53007D01*
X76202Y-53090D01*
X76167Y-53168D01*
X76118Y-53238D01*
X76056Y-53297D01*
X75984Y-53342D01*
X75904Y-53373D01*
X75820Y-53388D01*
X75735Y-53386D01*
X75652Y-53368D01*
X75574Y-53334D01*
X75504Y-53285D01*
X75444Y-53224D01*
X75398Y-53152D01*
X75367Y-53073D01*
X75351Y-52989D01*
X75353Y-52904D01*
X75370Y-52820D01*
X75404Y-52742D01*
X75452Y-52671D01*
X75513Y-52612D01*
X75584Y-52565D01*
X75663Y-52533D01*
X75747Y-52517D01*
X75833Y-52518D01*
X75916Y-52535D01*
X75995Y-52568D01*
X76066Y-52615D01*
X76126Y-52676D01*
X76173Y-52747D01*
X76205Y-52826D01*
X76222Y-52910D01*
X76222Y-52910D01*
G37*
G36*
X76354Y-46958D02*
X76352Y-47162D01*
X76307Y-47357D01*
X76235Y-47518D01*
X76120Y-47682D01*
X75992Y-47804D01*
X75823Y-47911D01*
X75659Y-47975D01*
X75461Y-48010D01*
X75285Y-48006D01*
X75089Y-47963D01*
X74928Y-47892D01*
X74763Y-47778D01*
X74641Y-47651D01*
X74532Y-47482D01*
X74467Y-47319D01*
X74431Y-47121D01*
X74433Y-46946D01*
X74475Y-46748D01*
X74544Y-46588D01*
X74658Y-46421D01*
X74783Y-46299D01*
X74952Y-46188D01*
X75114Y-46123D01*
X75313Y-46085D01*
X75487Y-46086D01*
X75686Y-46127D01*
X75846Y-46194D01*
X76014Y-46308D01*
X76137Y-46431D01*
X76249Y-46600D01*
X76315Y-46760D01*
X76354Y-46958D01*
X76354Y-46958D01*
G37*
G36*
X76354Y-59163D02*
X76352Y-59367D01*
X76307Y-59562D01*
X76235Y-59723D01*
X76120Y-59887D01*
X75992Y-60008D01*
X75823Y-60116D01*
X75659Y-60180D01*
X75461Y-60214D01*
X75285Y-60211D01*
X75089Y-60168D01*
X74928Y-60097D01*
X74763Y-59982D01*
X74641Y-59856D01*
X74532Y-59687D01*
X74467Y-59524D01*
X74431Y-59326D01*
X74433Y-59151D01*
X74475Y-58953D01*
X74544Y-58792D01*
X74658Y-58626D01*
X74783Y-58504D01*
X74952Y-58393D01*
X75114Y-58327D01*
X75313Y-58289D01*
X75487Y-58291D01*
X75686Y-58331D01*
X75846Y-58399D01*
X76014Y-58512D01*
X76137Y-58635D01*
X76249Y-58805D01*
X76315Y-58965D01*
X76354Y-59163D01*
X76354Y-59163D01*
G37*
G36*
X76929Y-52202D02*
X76928Y-52300D01*
X76909Y-52383D01*
X76874Y-52461D01*
X76825Y-52531D01*
X76763Y-52590D01*
X76691Y-52635D01*
X76612Y-52666D01*
X76528Y-52681D01*
X76442Y-52679D01*
X76359Y-52661D01*
X76281Y-52627D01*
X76211Y-52578D01*
X76151Y-52517D01*
X76105Y-52445D01*
X76074Y-52366D01*
X76058Y-52282D01*
X76060Y-52196D01*
X76077Y-52113D01*
X76111Y-52035D01*
X76159Y-51964D01*
X76220Y-51904D01*
X76291Y-51858D01*
X76371Y-51826D01*
X76454Y-51810D01*
X76540Y-51810D01*
X76623Y-51828D01*
X76702Y-51861D01*
X76773Y-51908D01*
X76833Y-51969D01*
X76880Y-52040D01*
X76912Y-52119D01*
X76929Y-52202D01*
X76929Y-52202D01*
G37*
G36*
X77379Y-48777D02*
X77378Y-48874D01*
X77354Y-48978D01*
X77320Y-49054D01*
X77259Y-49142D01*
X77198Y-49199D01*
X77108Y-49257D01*
X77030Y-49287D01*
X76924Y-49305D01*
X76842Y-49304D01*
X76736Y-49281D01*
X76661Y-49247D01*
X76572Y-49186D01*
X76515Y-49127D01*
X76456Y-49036D01*
X76426Y-48959D01*
X76406Y-48853D01*
X76407Y-48771D01*
X76430Y-48664D01*
X76462Y-48589D01*
X76524Y-48499D01*
X76582Y-48442D01*
X76673Y-48383D01*
X76749Y-48352D01*
X76856Y-48332D01*
X76937Y-48332D01*
X77045Y-48354D01*
X77119Y-48386D01*
X77210Y-48447D01*
X77267Y-48504D01*
X77328Y-48596D01*
X77358Y-48670D01*
X77379Y-48777D01*
X77379Y-48777D01*
G37*
G36*
X77636Y-51495D02*
X77635Y-51593D01*
X77616Y-51676D01*
X77581Y-51754D01*
X77532Y-51824D01*
X77470Y-51882D01*
X77398Y-51928D01*
X77319Y-51959D01*
X77235Y-51974D01*
X77149Y-51972D01*
X77066Y-51954D01*
X76988Y-51920D01*
X76918Y-51871D01*
X76859Y-51810D01*
X76812Y-51738D01*
X76781Y-51659D01*
X76766Y-51575D01*
X76767Y-51489D01*
X76784Y-51406D01*
X76818Y-51327D01*
X76866Y-51257D01*
X76927Y-51197D01*
X76999Y-51151D01*
X77078Y-51119D01*
X77161Y-51103D01*
X77247Y-51103D01*
X77330Y-51120D01*
X77409Y-51154D01*
X77480Y-51201D01*
X77540Y-51262D01*
X77587Y-51333D01*
X77620Y-51412D01*
X77636Y-51495D01*
X77636Y-51495D01*
G37*
G36*
X78343Y-50788D02*
X78342Y-50886D01*
X78323Y-50969D01*
X78288Y-51047D01*
X78239Y-51117D01*
X78177Y-51175D01*
X78105Y-51221D01*
X78026Y-51252D01*
X77942Y-51267D01*
X77856Y-51265D01*
X77773Y-51247D01*
X77695Y-51212D01*
X77625Y-51164D01*
X77566Y-51102D01*
X77519Y-51031D01*
X77488Y-50951D01*
X77473Y-50868D01*
X77474Y-50782D01*
X77492Y-50699D01*
X77525Y-50620D01*
X77573Y-50550D01*
X77634Y-50490D01*
X77706Y-50444D01*
X77785Y-50412D01*
X77869Y-50396D01*
X77954Y-50396D01*
X78037Y-50413D01*
X78116Y-50446D01*
X78187Y-50494D01*
X78247Y-50555D01*
X78294Y-50626D01*
X78327Y-50705D01*
X78343Y-50788D01*
X78343Y-50788D01*
G37*
G36*
X79050Y-50081D02*
X79049Y-50179D01*
X79030Y-50262D01*
X78995Y-50340D01*
X78946Y-50409D01*
X78884Y-50468D01*
X78812Y-50514D01*
X78733Y-50545D01*
X78649Y-50560D01*
X78564Y-50558D01*
X78480Y-50540D01*
X78402Y-50505D01*
X78332Y-50457D01*
X78273Y-50395D01*
X78227Y-50324D01*
X78195Y-50244D01*
X78180Y-50160D01*
X78181Y-50075D01*
X78199Y-49992D01*
X78232Y-49913D01*
X78280Y-49843D01*
X78341Y-49783D01*
X78413Y-49736D01*
X78492Y-49705D01*
X78576Y-49689D01*
X78661Y-49689D01*
X78745Y-49706D01*
X78823Y-49739D01*
X78894Y-49787D01*
X78954Y-49848D01*
X79001Y-49919D01*
X79034Y-49997D01*
X79050Y-50081D01*
X79050Y-50081D01*
G37*
G36*
X79757Y-49374D02*
X79756Y-49472D01*
X79737Y-49555D01*
X79702Y-49633D01*
X79653Y-49702D01*
X79592Y-49761D01*
X79520Y-49807D01*
X79440Y-49838D01*
X79356Y-49853D01*
X79271Y-49851D01*
X79187Y-49832D01*
X79109Y-49798D01*
X79039Y-49750D01*
X78980Y-49688D01*
X78934Y-49617D01*
X78902Y-49537D01*
X78887Y-49453D01*
X78888Y-49368D01*
X78906Y-49285D01*
X78939Y-49206D01*
X78988Y-49136D01*
X79049Y-49076D01*
X79120Y-49029D01*
X79199Y-48997D01*
X79283Y-48981D01*
X79368Y-48982D01*
X79452Y-48999D01*
X79530Y-49032D01*
X79601Y-49080D01*
X79661Y-49140D01*
X79708Y-49212D01*
X79741Y-49290D01*
X79757Y-49374D01*
X79757Y-49374D01*
G37*
G36*
X80465Y-48667D02*
X80463Y-48764D01*
X80444Y-48848D01*
X80410Y-48926D01*
X80360Y-48995D01*
X80299Y-49054D01*
X80227Y-49100D01*
X80147Y-49131D01*
X80063Y-49145D01*
X79978Y-49144D01*
X79894Y-49125D01*
X79816Y-49091D01*
X79746Y-49042D01*
X79687Y-48981D01*
X79641Y-48909D01*
X79609Y-48830D01*
X79594Y-48746D01*
X79595Y-48661D01*
X79613Y-48577D01*
X79647Y-48499D01*
X79695Y-48429D01*
X79756Y-48369D01*
X79827Y-48322D01*
X79906Y-48290D01*
X79990Y-48274D01*
X80075Y-48275D01*
X80159Y-48292D01*
X80237Y-48325D01*
X80308Y-48373D01*
X80368Y-48433D01*
X80415Y-48504D01*
X80448Y-48583D01*
X80465Y-48667D01*
X80465Y-48667D01*
G37*
G36*
X86781Y-53107D02*
X86780Y-53205D01*
X86756Y-53309D01*
X86722Y-53385D01*
X86660Y-53472D01*
X86600Y-53530D01*
X86509Y-53587D01*
X86432Y-53617D01*
X86326Y-53636D01*
X86243Y-53634D01*
X86138Y-53611D01*
X86062Y-53578D01*
X85974Y-53517D01*
X85916Y-53457D01*
X85858Y-53366D01*
X85827Y-53290D01*
X85808Y-53183D01*
X85809Y-53101D01*
X85832Y-52995D01*
X85864Y-52920D01*
X85925Y-52830D01*
X85983Y-52773D01*
X86075Y-52713D01*
X86150Y-52683D01*
X86258Y-52662D01*
X86339Y-52663D01*
X86446Y-52685D01*
X86520Y-52716D01*
X86612Y-52778D01*
X86668Y-52835D01*
X86729Y-52927D01*
X86760Y-53001D01*
X86781Y-53107D01*
X86781Y-53107D01*
G37*
G36*
X89781Y-53107D02*
X89780Y-53205D01*
X89756Y-53309D01*
X89722Y-53385D01*
X89660Y-53472D01*
X89600Y-53530D01*
X89509Y-53587D01*
X89432Y-53617D01*
X89326Y-53636D01*
X89243Y-53634D01*
X89138Y-53611D01*
X89062Y-53578D01*
X88974Y-53517D01*
X88916Y-53457D01*
X88858Y-53366D01*
X88827Y-53290D01*
X88808Y-53183D01*
X88809Y-53101D01*
X88832Y-52995D01*
X88864Y-52920D01*
X88925Y-52830D01*
X88983Y-52773D01*
X89075Y-52713D01*
X89150Y-52683D01*
X89258Y-52662D01*
X89339Y-52663D01*
X89446Y-52685D01*
X89520Y-52716D01*
X89612Y-52778D01*
X89668Y-52835D01*
X89729Y-52927D01*
X89760Y-53001D01*
X89781Y-53107D01*
X89781Y-53107D01*
G37*
G36*
X93323Y-51609D02*
X93321Y-51706D01*
X93298Y-51810D01*
X93264Y-51887D01*
X93202Y-51974D01*
X93142Y-52032D01*
X93051Y-52089D01*
X92974Y-52119D01*
X92868Y-52138D01*
X92785Y-52136D01*
X92680Y-52113D01*
X92604Y-52080D01*
X92515Y-52018D01*
X92458Y-51959D01*
X92399Y-51868D01*
X92369Y-51792D01*
X92350Y-51685D01*
X92351Y-51603D01*
X92373Y-51497D01*
X92405Y-51422D01*
X92467Y-51332D01*
X92525Y-51275D01*
X92617Y-51215D01*
X92692Y-51185D01*
X92800Y-51164D01*
X92880Y-51165D01*
X92988Y-51187D01*
X93062Y-51218D01*
X93153Y-51279D01*
X93210Y-51336D01*
X93271Y-51428D01*
X93302Y-51502D01*
X93323Y-51609D01*
X93323Y-51609D01*
G37*
G36*
X95444Y-49488D02*
X95443Y-49585D01*
X95419Y-49689D01*
X95385Y-49765D01*
X95323Y-49853D01*
X95263Y-49910D01*
X95172Y-49968D01*
X95095Y-49998D01*
X94989Y-50016D01*
X94906Y-50015D01*
X94801Y-49992D01*
X94725Y-49958D01*
X94637Y-49897D01*
X94579Y-49838D01*
X94521Y-49747D01*
X94491Y-49670D01*
X94471Y-49563D01*
X94472Y-49482D01*
X94495Y-49375D01*
X94527Y-49300D01*
X94588Y-49210D01*
X94646Y-49153D01*
X94738Y-49094D01*
X94813Y-49063D01*
X94921Y-49043D01*
X95002Y-49043D01*
X95109Y-49065D01*
X95183Y-49097D01*
X95275Y-49158D01*
X95331Y-49215D01*
X95392Y-49307D01*
X95423Y-49381D01*
X95444Y-49488D01*
X95444Y-49488D01*
G37*
G36*
X97805Y-49564D02*
X97803Y-49661D01*
X97780Y-49765D01*
X97746Y-49842D01*
X97684Y-49929D01*
X97623Y-49987D01*
X97533Y-50044D01*
X97455Y-50074D01*
X97350Y-50093D01*
X97267Y-50091D01*
X97162Y-50068D01*
X97086Y-50035D01*
X96997Y-49973D01*
X96940Y-49914D01*
X96881Y-49823D01*
X96851Y-49747D01*
X96832Y-49640D01*
X96833Y-49558D01*
X96855Y-49452D01*
X96887Y-49377D01*
X96949Y-49287D01*
X97007Y-49230D01*
X97099Y-49170D01*
X97174Y-49140D01*
X97281Y-49119D01*
X97362Y-49120D01*
X97470Y-49142D01*
X97544Y-49173D01*
X97635Y-49235D01*
X97692Y-49291D01*
X97753Y-49383D01*
X97783Y-49457D01*
X97805Y-49564D01*
X97805Y-49564D01*
G37*
G36*
X100805Y-49564D02*
X100803Y-49661D01*
X100780Y-49765D01*
X100746Y-49842D01*
X100684Y-49929D01*
X100623Y-49987D01*
X100533Y-50044D01*
X100455Y-50074D01*
X100350Y-50093D01*
X100267Y-50091D01*
X100162Y-50068D01*
X100086Y-50035D01*
X99997Y-49973D01*
X99940Y-49914D01*
X99881Y-49823D01*
X99851Y-49747D01*
X99832Y-49640D01*
X99833Y-49558D01*
X99855Y-49452D01*
X99887Y-49377D01*
X99949Y-49287D01*
X100007Y-49230D01*
X100099Y-49170D01*
X100174Y-49140D01*
X100281Y-49119D01*
X100362Y-49120D01*
X100470Y-49142D01*
X100544Y-49173D01*
X100635Y-49235D01*
X100692Y-49291D01*
X100753Y-49383D01*
X100783Y-49457D01*
X100805Y-49564D01*
X100805Y-49564D01*
G37*
G36*
X103227Y-47483D02*
X102354Y-47483D01*
X102354Y-47239D01*
X102354Y-47208D01*
X102342Y-47179D01*
X102320Y-47157D01*
X102291Y-47145D01*
X102260Y-47145D01*
X102231Y-47157D01*
X102209Y-47179D01*
X102174Y-47258D01*
X102118Y-47337D01*
X102065Y-47388D01*
X101983Y-47440D01*
X101914Y-47467D01*
X101818Y-47484D01*
X101745Y-47482D01*
X101650Y-47461D01*
X101583Y-47432D01*
X101502Y-47376D01*
X101452Y-47324D01*
X101398Y-47241D01*
X101372Y-47174D01*
X101369Y-47157D01*
X101357Y-47128D01*
X101335Y-47106D01*
X101306Y-47094D01*
X101275Y-47094D01*
X101246Y-47106D01*
X101224Y-47128D01*
X101212Y-47157D01*
X101204Y-47190D01*
X101174Y-47258D01*
X101118Y-47337D01*
X101065Y-47388D01*
X100983Y-47440D01*
X100914Y-47467D01*
X100818Y-47484D01*
X100745Y-47482D01*
X100650Y-47461D01*
X100583Y-47432D01*
X100502Y-47376D01*
X100452Y-47324D01*
X100398Y-47241D01*
X100372Y-47174D01*
X100369Y-47157D01*
X100357Y-47128D01*
X100335Y-47106D01*
X100306Y-47094D01*
X100275Y-47094D01*
X100246Y-47106D01*
X100224Y-47128D01*
X100212Y-47157D01*
X100204Y-47190D01*
X100174Y-47258D01*
X100118Y-47337D01*
X100065Y-47388D01*
X99983Y-47440D01*
X99914Y-47467D01*
X99818Y-47484D01*
X99745Y-47482D01*
X99650Y-47461D01*
X99583Y-47432D01*
X99502Y-47376D01*
X99452Y-47324D01*
X99398Y-47241D01*
X99372Y-47174D01*
X99369Y-47157D01*
X99357Y-47128D01*
X99335Y-47106D01*
X99306Y-47094D01*
X99275Y-47094D01*
X99246Y-47106D01*
X99224Y-47128D01*
X99212Y-47157D01*
X99204Y-47190D01*
X99174Y-47258D01*
X99118Y-47337D01*
X99065Y-47388D01*
X98983Y-47440D01*
X98914Y-47467D01*
X98818Y-47484D01*
X98745Y-47482D01*
X98650Y-47461D01*
X98583Y-47432D01*
X98502Y-47376D01*
X98452Y-47324D01*
X98398Y-47241D01*
X98372Y-47174D01*
X98369Y-47157D01*
X98357Y-47128D01*
X98335Y-47106D01*
X98306Y-47094D01*
X98275Y-47094D01*
X98246Y-47106D01*
X98224Y-47128D01*
X98212Y-47157D01*
X98204Y-47190D01*
X98174Y-47258D01*
X98118Y-47337D01*
X98065Y-47388D01*
X97983Y-47440D01*
X97914Y-47467D01*
X97818Y-47484D01*
X97745Y-47482D01*
X97650Y-47461D01*
X97583Y-47432D01*
X97502Y-47376D01*
X97452Y-47324D01*
X97398Y-47241D01*
X97372Y-47174D01*
X97369Y-47157D01*
X97357Y-47128D01*
X97335Y-47106D01*
X97306Y-47094D01*
X97275Y-47094D01*
X97246Y-47106D01*
X97224Y-47128D01*
X97212Y-47157D01*
X97204Y-47190D01*
X97174Y-47258D01*
X97118Y-47337D01*
X97065Y-47388D01*
X96983Y-47440D01*
X96914Y-47467D01*
X96818Y-47484D01*
X96745Y-47482D01*
X96650Y-47461D01*
X96583Y-47432D01*
X96502Y-47376D01*
X96452Y-47324D01*
X96398Y-47241D01*
X96372Y-47174D01*
X96369Y-47157D01*
X96357Y-47128D01*
X96335Y-47106D01*
X96306Y-47094D01*
X96275Y-47094D01*
X96246Y-47106D01*
X96224Y-47128D01*
X96212Y-47157D01*
X96204Y-47190D01*
X96174Y-47258D01*
X96118Y-47337D01*
X96065Y-47388D01*
X95983Y-47440D01*
X95914Y-47467D01*
X95818Y-47484D01*
X95745Y-47482D01*
X95650Y-47461D01*
X95583Y-47432D01*
X95502Y-47376D01*
X95452Y-47324D01*
X95398Y-47241D01*
X95372Y-47174D01*
X95369Y-47157D01*
X95357Y-47128D01*
X95335Y-47106D01*
X95306Y-47094D01*
X95275Y-47094D01*
X95246Y-47106D01*
X95224Y-47128D01*
X95212Y-47157D01*
X95204Y-47190D01*
X95174Y-47258D01*
X95118Y-47337D01*
X95065Y-47388D01*
X94983Y-47440D01*
X94914Y-47467D01*
X94818Y-47484D01*
X94745Y-47482D01*
X94650Y-47461D01*
X94583Y-47432D01*
X94502Y-47376D01*
X94452Y-47324D01*
X94398Y-47241D01*
X94372Y-47174D01*
X94369Y-47157D01*
X94357Y-47128D01*
X94335Y-47106D01*
X94306Y-47094D01*
X94275Y-47094D01*
X94246Y-47106D01*
X94224Y-47128D01*
X94212Y-47157D01*
X94204Y-47190D01*
X94174Y-47258D01*
X94118Y-47337D01*
X94065Y-47388D01*
X93983Y-47440D01*
X93914Y-47467D01*
X93818Y-47484D01*
X93745Y-47482D01*
X93650Y-47461D01*
X93583Y-47432D01*
X93502Y-47376D01*
X93452Y-47324D01*
X93398Y-47241D01*
X93372Y-47174D01*
X93369Y-47157D01*
X93357Y-47128D01*
X93335Y-47106D01*
X93306Y-47094D01*
X93275Y-47094D01*
X93246Y-47106D01*
X93224Y-47128D01*
X93212Y-47157D01*
X93204Y-47190D01*
X93174Y-47258D01*
X93118Y-47337D01*
X93065Y-47388D01*
X92983Y-47440D01*
X92914Y-47467D01*
X92818Y-47484D01*
X92745Y-47482D01*
X92650Y-47461D01*
X92583Y-47432D01*
X92502Y-47376D01*
X92452Y-47324D01*
X92398Y-47241D01*
X92372Y-47174D01*
X92369Y-47157D01*
X92357Y-47128D01*
X92335Y-47106D01*
X92306Y-47094D01*
X92275Y-47094D01*
X92246Y-47106D01*
X92224Y-47128D01*
X92212Y-47157D01*
X92204Y-47190D01*
X92174Y-47258D01*
X92118Y-47337D01*
X92065Y-47388D01*
X91983Y-47440D01*
X91914Y-47467D01*
X91818Y-47484D01*
X91745Y-47482D01*
X91650Y-47461D01*
X91583Y-47432D01*
X91502Y-47376D01*
X91452Y-47324D01*
X91398Y-47241D01*
X91372Y-47174D01*
X91369Y-47157D01*
X91357Y-47128D01*
X91335Y-47106D01*
X91306Y-47094D01*
X91275Y-47094D01*
X91246Y-47106D01*
X91224Y-47128D01*
X91212Y-47157D01*
X91204Y-47190D01*
X91174Y-47258D01*
X91118Y-47337D01*
X91065Y-47388D01*
X90983Y-47440D01*
X90914Y-47467D01*
X90818Y-47484D01*
X90745Y-47482D01*
X90650Y-47461D01*
X90583Y-47432D01*
X90502Y-47376D01*
X90452Y-47324D01*
X90398Y-47241D01*
X90372Y-47174D01*
X90369Y-47157D01*
X90357Y-47128D01*
X90335Y-47106D01*
X90306Y-47094D01*
X90275Y-47094D01*
X90246Y-47106D01*
X90224Y-47128D01*
X90212Y-47157D01*
X90204Y-47190D01*
X90174Y-47258D01*
X90118Y-47337D01*
X90065Y-47388D01*
X89983Y-47440D01*
X89914Y-47467D01*
X89818Y-47484D01*
X89745Y-47482D01*
X89650Y-47461D01*
X89583Y-47432D01*
X89502Y-47376D01*
X89452Y-47324D01*
X89398Y-47241D01*
X89372Y-47174D01*
X89369Y-47157D01*
X89357Y-47128D01*
X89335Y-47106D01*
X89306Y-47094D01*
X89275Y-47094D01*
X89246Y-47106D01*
X89224Y-47128D01*
X89212Y-47157D01*
X89204Y-47190D01*
X89174Y-47258D01*
X89118Y-47337D01*
X89065Y-47388D01*
X88983Y-47440D01*
X88914Y-47467D01*
X88818Y-47484D01*
X88745Y-47482D01*
X88650Y-47461D01*
X88583Y-47432D01*
X88502Y-47376D01*
X88452Y-47324D01*
X88398Y-47241D01*
X88372Y-47174D01*
X88369Y-47157D01*
X88357Y-47128D01*
X88335Y-47106D01*
X88306Y-47094D01*
X88275Y-47094D01*
X88246Y-47106D01*
X88224Y-47128D01*
X88212Y-47157D01*
X88204Y-47190D01*
X88174Y-47258D01*
X88118Y-47337D01*
X88065Y-47388D01*
X87983Y-47440D01*
X87914Y-47467D01*
X87818Y-47484D01*
X87745Y-47482D01*
X87650Y-47461D01*
X87583Y-47432D01*
X87502Y-47376D01*
X87452Y-47324D01*
X87398Y-47241D01*
X87372Y-47174D01*
X87369Y-47157D01*
X87357Y-47128D01*
X87335Y-47106D01*
X87306Y-47094D01*
X87275Y-47094D01*
X87246Y-47106D01*
X87224Y-47128D01*
X87212Y-47157D01*
X87204Y-47190D01*
X87174Y-47258D01*
X87118Y-47337D01*
X87065Y-47388D01*
X86983Y-47440D01*
X86914Y-47467D01*
X86818Y-47484D01*
X86745Y-47482D01*
X86650Y-47461D01*
X86583Y-47432D01*
X86502Y-47376D01*
X86452Y-47324D01*
X86398Y-47241D01*
X86372Y-47174D01*
X86369Y-47157D01*
X86357Y-47128D01*
X86335Y-47106D01*
X86306Y-47094D01*
X86275Y-47094D01*
X86246Y-47106D01*
X86224Y-47128D01*
X86212Y-47157D01*
X86204Y-47190D01*
X86174Y-47258D01*
X86118Y-47337D01*
X86065Y-47388D01*
X85983Y-47440D01*
X85914Y-47467D01*
X85818Y-47484D01*
X85745Y-47482D01*
X85650Y-47461D01*
X85583Y-47432D01*
X85502Y-47376D01*
X85452Y-47324D01*
X85398Y-47241D01*
X85372Y-47174D01*
X85354Y-47077D01*
X85355Y-47005D01*
X85376Y-46908D01*
X85404Y-46842D01*
X85460Y-46760D01*
X85511Y-46710D01*
X85594Y-46655D01*
X85660Y-46629D01*
X85758Y-46610D01*
X85829Y-46611D01*
X85927Y-46631D01*
X85993Y-46658D01*
X86076Y-46714D01*
X86125Y-46764D01*
X86181Y-46848D01*
X86208Y-46913D01*
X86213Y-46937D01*
X86224Y-46966D01*
X86247Y-46988D01*
X86275Y-47000D01*
X86307Y-47000D01*
X86335Y-46988D01*
X86358Y-46966D01*
X86369Y-46937D01*
X86376Y-46908D01*
X86404Y-46842D01*
X86460Y-46760D01*
X86511Y-46710D01*
X86594Y-46655D01*
X86660Y-46629D01*
X86758Y-46610D01*
X86829Y-46611D01*
X86927Y-46631D01*
X86993Y-46658D01*
X87076Y-46714D01*
X87125Y-46764D01*
X87181Y-46848D01*
X87208Y-46913D01*
X87213Y-46937D01*
X87224Y-46966D01*
X87247Y-46988D01*
X87275Y-47000D01*
X87307Y-47000D01*
X87335Y-46988D01*
X87358Y-46966D01*
X87369Y-46937D01*
X87376Y-46908D01*
X87404Y-46842D01*
X87460Y-46760D01*
X87511Y-46710D01*
X87594Y-46655D01*
X87660Y-46629D01*
X87758Y-46610D01*
X87829Y-46611D01*
X87927Y-46631D01*
X87993Y-46658D01*
X88076Y-46714D01*
X88125Y-46764D01*
X88181Y-46848D01*
X88208Y-46913D01*
X88213Y-46937D01*
X88224Y-46966D01*
X88247Y-46988D01*
X88275Y-47000D01*
X88307Y-47000D01*
X88335Y-46988D01*
X88358Y-46966D01*
X88369Y-46937D01*
X88376Y-46908D01*
X88404Y-46842D01*
X88460Y-46760D01*
X88511Y-46710D01*
X88594Y-46655D01*
X88660Y-46629D01*
X88758Y-46610D01*
X88829Y-46611D01*
X88927Y-46631D01*
X88993Y-46658D01*
X89076Y-46714D01*
X89125Y-46764D01*
X89181Y-46848D01*
X89208Y-46913D01*
X89213Y-46937D01*
X89224Y-46966D01*
X89247Y-46988D01*
X89275Y-47000D01*
X89307Y-47000D01*
X89335Y-46988D01*
X89358Y-46966D01*
X89369Y-46937D01*
X89376Y-46908D01*
X89404Y-46842D01*
X89460Y-46760D01*
X89511Y-46710D01*
X89594Y-46655D01*
X89660Y-46629D01*
X89758Y-46610D01*
X89829Y-46611D01*
X89927Y-46631D01*
X89993Y-46658D01*
X90076Y-46714D01*
X90125Y-46764D01*
X90181Y-46848D01*
X90208Y-46913D01*
X90213Y-46937D01*
X90224Y-46966D01*
X90247Y-46988D01*
X90275Y-47000D01*
X90307Y-47000D01*
X90335Y-46988D01*
X90358Y-46966D01*
X90369Y-46937D01*
X90376Y-46908D01*
X90404Y-46842D01*
X90460Y-46760D01*
X90511Y-46710D01*
X90594Y-46655D01*
X90660Y-46629D01*
X90758Y-46610D01*
X90829Y-46611D01*
X90927Y-46631D01*
X90993Y-46658D01*
X91076Y-46714D01*
X91125Y-46764D01*
X91181Y-46848D01*
X91208Y-46913D01*
X91213Y-46937D01*
X91224Y-46966D01*
X91247Y-46988D01*
X91275Y-47000D01*
X91307Y-47000D01*
X91335Y-46988D01*
X91358Y-46966D01*
X91369Y-46937D01*
X91376Y-46908D01*
X91404Y-46842D01*
X91460Y-46760D01*
X91511Y-46710D01*
X91594Y-46655D01*
X91660Y-46629D01*
X91758Y-46610D01*
X91829Y-46611D01*
X91927Y-46631D01*
X91993Y-46658D01*
X92076Y-46714D01*
X92125Y-46764D01*
X92181Y-46848D01*
X92208Y-46913D01*
X92213Y-46937D01*
X92224Y-46966D01*
X92247Y-46988D01*
X92275Y-47000D01*
X92307Y-47000D01*
X92335Y-46988D01*
X92358Y-46966D01*
X92369Y-46937D01*
X92376Y-46908D01*
X92404Y-46842D01*
X92460Y-46760D01*
X92511Y-46710D01*
X92594Y-46655D01*
X92660Y-46629D01*
X92758Y-46610D01*
X92829Y-46611D01*
X92927Y-46631D01*
X92993Y-46658D01*
X93076Y-46714D01*
X93125Y-46764D01*
X93181Y-46848D01*
X93208Y-46913D01*
X93213Y-46937D01*
X93224Y-46966D01*
X93247Y-46988D01*
X93275Y-47000D01*
X93307Y-47000D01*
X93335Y-46988D01*
X93358Y-46966D01*
X93369Y-46937D01*
X93376Y-46908D01*
X93404Y-46842D01*
X93460Y-46760D01*
X93511Y-46710D01*
X93594Y-46655D01*
X93660Y-46629D01*
X93758Y-46610D01*
X93829Y-46611D01*
X93927Y-46631D01*
X93993Y-46658D01*
X94076Y-46714D01*
X94125Y-46764D01*
X94181Y-46848D01*
X94208Y-46913D01*
X94213Y-46937D01*
X94224Y-46966D01*
X94247Y-46988D01*
X94275Y-47000D01*
X94307Y-47000D01*
X94335Y-46988D01*
X94358Y-46966D01*
X94369Y-46937D01*
X94376Y-46908D01*
X94404Y-46842D01*
X94460Y-46760D01*
X94511Y-46710D01*
X94594Y-46655D01*
X94660Y-46629D01*
X94758Y-46610D01*
X94829Y-46611D01*
X94927Y-46631D01*
X94993Y-46658D01*
X95076Y-46714D01*
X95125Y-46764D01*
X95181Y-46848D01*
X95208Y-46913D01*
X95213Y-46937D01*
X95224Y-46966D01*
X95247Y-46988D01*
X95275Y-47000D01*
X95307Y-47000D01*
X95335Y-46988D01*
X95358Y-46966D01*
X95369Y-46937D01*
X95376Y-46908D01*
X95404Y-46842D01*
X95460Y-46760D01*
X95511Y-46710D01*
X95594Y-46655D01*
X95660Y-46629D01*
X95758Y-46610D01*
X95829Y-46611D01*
X95927Y-46631D01*
X95993Y-46658D01*
X96076Y-46714D01*
X96125Y-46764D01*
X96181Y-46848D01*
X96208Y-46913D01*
X96213Y-46937D01*
X96224Y-46966D01*
X96247Y-46988D01*
X96275Y-47000D01*
X96307Y-47000D01*
X96335Y-46988D01*
X96358Y-46966D01*
X96369Y-46937D01*
X96376Y-46908D01*
X96404Y-46842D01*
X96460Y-46760D01*
X96511Y-46710D01*
X96594Y-46655D01*
X96660Y-46629D01*
X96758Y-46610D01*
X96829Y-46611D01*
X96927Y-46631D01*
X96993Y-46658D01*
X97076Y-46714D01*
X97125Y-46764D01*
X97181Y-46848D01*
X97208Y-46913D01*
X97213Y-46937D01*
X97224Y-46966D01*
X97247Y-46988D01*
X97275Y-47000D01*
X97307Y-47000D01*
X97335Y-46988D01*
X97358Y-46966D01*
X97369Y-46937D01*
X97376Y-46908D01*
X97404Y-46842D01*
X97460Y-46760D01*
X97511Y-46710D01*
X97594Y-46655D01*
X97660Y-46629D01*
X97758Y-46610D01*
X97829Y-46611D01*
X97927Y-46631D01*
X97993Y-46658D01*
X98076Y-46714D01*
X98125Y-46764D01*
X98181Y-46848D01*
X98208Y-46913D01*
X98213Y-46937D01*
X98224Y-46966D01*
X98247Y-46988D01*
X98275Y-47000D01*
X98307Y-47000D01*
X98335Y-46988D01*
X98358Y-46966D01*
X98369Y-46937D01*
X98376Y-46908D01*
X98404Y-46842D01*
X98460Y-46760D01*
X98511Y-46710D01*
X98594Y-46655D01*
X98660Y-46629D01*
X98758Y-46610D01*
X98829Y-46611D01*
X98927Y-46631D01*
X98993Y-46658D01*
X99076Y-46714D01*
X99125Y-46764D01*
X99181Y-46848D01*
X99208Y-46913D01*
X99213Y-46937D01*
X99224Y-46966D01*
X99247Y-46988D01*
X99275Y-47000D01*
X99307Y-47000D01*
X99335Y-46988D01*
X99358Y-46966D01*
X99369Y-46937D01*
X99376Y-46908D01*
X99404Y-46842D01*
X99460Y-46760D01*
X99511Y-46710D01*
X99594Y-46655D01*
X99660Y-46629D01*
X99758Y-46610D01*
X99829Y-46611D01*
X99927Y-46631D01*
X99993Y-46658D01*
X100076Y-46714D01*
X100125Y-46764D01*
X100181Y-46848D01*
X100208Y-46913D01*
X100213Y-46937D01*
X100224Y-46966D01*
X100247Y-46988D01*
X100275Y-47000D01*
X100307Y-47000D01*
X100335Y-46988D01*
X100358Y-46966D01*
X100369Y-46937D01*
X100376Y-46908D01*
X100404Y-46842D01*
X100460Y-46760D01*
X100511Y-46710D01*
X100594Y-46655D01*
X100660Y-46629D01*
X100758Y-46610D01*
X100829Y-46611D01*
X100927Y-46631D01*
X100993Y-46658D01*
X101076Y-46714D01*
X101125Y-46764D01*
X101181Y-46848D01*
X101208Y-46913D01*
X101213Y-46937D01*
X101224Y-46966D01*
X101247Y-46988D01*
X101275Y-47000D01*
X101307Y-47000D01*
X101335Y-46988D01*
X101358Y-46966D01*
X101369Y-46937D01*
X101376Y-46908D01*
X101404Y-46842D01*
X101460Y-46760D01*
X101511Y-46710D01*
X101594Y-46655D01*
X101660Y-46629D01*
X101758Y-46610D01*
X101829Y-46611D01*
X101927Y-46631D01*
X101993Y-46658D01*
X102076Y-46714D01*
X102125Y-46764D01*
X102181Y-46848D01*
X102197Y-46888D01*
X102209Y-46916D01*
X102231Y-46938D01*
X102260Y-46950D01*
X102291Y-46950D01*
X102320Y-46938D01*
X102342Y-46916D01*
X102354Y-46888D01*
X102354Y-46856D01*
X102354Y-46610D01*
X103227Y-46610D01*
X103227Y-47483D01*
X103227Y-47483D01*
G37*
G36*
X105882Y-46958D02*
X105879Y-47162D01*
X105835Y-47357D01*
X105763Y-47518D01*
X105648Y-47682D01*
X105520Y-47804D01*
X105351Y-47911D01*
X105186Y-47975D01*
X104989Y-48010D01*
X104813Y-48006D01*
X104616Y-47963D01*
X104455Y-47892D01*
X104290Y-47778D01*
X104168Y-47651D01*
X104059Y-47482D01*
X103995Y-47319D01*
X103958Y-47121D01*
X103961Y-46946D01*
X104003Y-46748D01*
X104072Y-46588D01*
X104186Y-46421D01*
X104310Y-46299D01*
X104480Y-46188D01*
X104641Y-46123D01*
X104841Y-46085D01*
X105014Y-46086D01*
X105213Y-46127D01*
X105373Y-46194D01*
X105542Y-46308D01*
X105664Y-46431D01*
X105777Y-46600D01*
X105843Y-46760D01*
X105882Y-46958D01*
X105882Y-46958D01*
G37*
M02*
