G04 (created by PCBNEW (2013-07-07 BZR 4022)-stable) date 22/01/2014 11:53:34*
%MOIN*%
G04 Gerber Fmt 3.4, Leading zero omitted, Abs format*
%FSLAX34Y34*%
G01*
G70*
G90*
G04 APERTURE LIST*
%ADD10C,0.00590551*%
%ADD11R,0.055X0.055*%
%ADD12C,0.055*%
%ADD13C,0.06*%
%ADD14C,0.065*%
%ADD15C,0.16*%
G04 APERTURE END LIST*
G54D10*
G54D11*
X102791Y-47047D03*
G54D12*
X101791Y-47047D03*
X100791Y-47047D03*
X99791Y-47047D03*
X98791Y-47047D03*
X97791Y-47047D03*
X96791Y-47047D03*
X95791Y-47047D03*
X94791Y-47047D03*
X93791Y-47047D03*
X92791Y-47047D03*
X91791Y-47047D03*
X90791Y-47047D03*
X89791Y-47047D03*
X88791Y-47047D03*
X87791Y-47047D03*
X86791Y-47047D03*
X85791Y-47047D03*
G54D10*
G36*
X71544Y-57584D02*
X71155Y-57195D01*
X71544Y-56806D01*
X71933Y-57195D01*
X71544Y-57584D01*
X71544Y-57584D01*
G37*
G54D12*
X72251Y-56488D03*
X72958Y-55781D03*
X73666Y-55074D03*
X74373Y-54366D03*
X75080Y-53659D03*
X75787Y-52952D03*
X76494Y-52245D03*
X77201Y-51538D03*
X77908Y-50831D03*
X78615Y-50124D03*
X79322Y-49417D03*
X80030Y-48710D03*
G54D13*
X68025Y-48818D03*
X72525Y-48818D03*
X68025Y-50787D03*
X72525Y-50787D03*
X60742Y-48818D03*
X65242Y-48818D03*
X60742Y-50787D03*
X65242Y-50787D03*
X64285Y-58267D03*
X68785Y-58267D03*
X64285Y-56299D03*
X68785Y-56299D03*
G54D14*
X89295Y-53149D03*
X86295Y-53149D03*
X94958Y-49529D03*
X92836Y-51651D03*
X100318Y-49606D03*
X97318Y-49606D03*
X76893Y-48818D03*
X73893Y-48818D03*
X66263Y-47440D03*
X63263Y-47440D03*
X69413Y-53543D03*
X66413Y-53543D03*
G54D15*
X75393Y-47047D03*
X104921Y-47047D03*
X75393Y-59251D03*
M02*
