M48
INCH,LZ
T1C0.032
T2C0.040
T3C0.120
%
G90
G05
T1
X063264Y-047441
X066264Y-047441
X066413Y-053543
X069413Y-053543
X070665Y-058465
X071665Y-058465
X072665Y-058465
X073228Y-051831
X073228Y-052831
X073228Y-053831
X073228Y-054831
X073228Y-055831
X073228Y-056831
X073665Y-058465
X074665Y-058465
X075665Y-058465
X076665Y-058465
X077665Y-058465
X078665Y-058465
X07874Y-051059
X07874Y-054059
X079665Y-058465
X080665Y-058465
X081665Y-058465
X082665Y-058465
X083665Y-058465
X08575Y-05327
X085791Y-047047
X086791Y-047047
X087791Y-047047
X087872Y-055391
X088791Y-047047
X089791Y-047047
X090626Y-051181
X090791Y-047047
X091791Y-047047
X092791Y-047047
X093626Y-051181
X093791Y-047047
X094791Y-047047
X095791Y-047047
X096791Y-047047
X097713Y-051181
X097791Y-047047
X098791Y-047047
X099791Y-047047
X100713Y-051181
X100791Y-047047
X101791Y-047047
X102791Y-047047
T2
X060742Y-048819
X060742Y-050787
X064285Y-056299
X064285Y-058268
X065242Y-048819
X065242Y-050787
X068026Y-048819
X068026Y-050787
X068785Y-056299
X068785Y-058268
X072526Y-048819
X072526Y-050787
X076378Y-048909
X076378Y-049909
X079528Y-047638
T3
X075394Y-047047
X104921Y-047047
X104921Y-059252
T0
M30
