G04 (created by PCBNEW (2013-07-07 BZR 4022)-stable) date 21/01/2014 20:06:10*
%MOIN*%
G04 Gerber Fmt 3.4, Leading zero omitted, Abs format*
%FSLAX34Y34*%
G01*
G70*
G90*
G04 APERTURE LIST*
%ADD10C,0.00590551*%
%ADD11C,0.00393701*%
G04 APERTURE END LIST*
G54D10*
G54D11*
X79330Y-57874D02*
X80314Y-57874D01*
X76181Y-61023D02*
X79330Y-57874D01*
X75196Y-61023D02*
X76181Y-61023D01*
X74015Y-46456D02*
X73228Y-46456D01*
X74409Y-46062D02*
X74015Y-46456D01*
X76377Y-46062D02*
X74409Y-46062D01*
X76771Y-46456D02*
X76377Y-46062D01*
X84055Y-46456D02*
X76771Y-46456D01*
X84448Y-46062D02*
X105905Y-46062D01*
X84055Y-46456D02*
X84448Y-46062D01*
X62204Y-46456D02*
X73228Y-46456D01*
X60236Y-48425D02*
X62204Y-46456D01*
X60236Y-51574D02*
X60236Y-48425D01*
X61023Y-52362D02*
X60236Y-51574D01*
X62992Y-52362D02*
X61023Y-52362D01*
X63385Y-52755D02*
X62992Y-52362D01*
X63385Y-54330D02*
X63385Y-52755D01*
X62204Y-55511D02*
X63385Y-54330D01*
X62204Y-59251D02*
X62204Y-55511D01*
X63976Y-61023D02*
X62204Y-59251D01*
X75196Y-61023D02*
X63976Y-61023D01*
X82677Y-55511D02*
X80314Y-57874D01*
X91929Y-55511D02*
X82677Y-55511D01*
X96062Y-51377D02*
X91929Y-55511D01*
X100590Y-51377D02*
X96062Y-51377D01*
X102952Y-49015D02*
X100590Y-51377D01*
X105118Y-49015D02*
X102952Y-49015D01*
X105905Y-48228D02*
X105118Y-49015D01*
X105905Y-46062D02*
X105905Y-48228D01*
X74409Y-47047D02*
X74409Y-47244D01*
X74212Y-47047D02*
X74409Y-47047D01*
X74606Y-47047D02*
X74212Y-47047D01*
X74409Y-47047D02*
X74606Y-47047D01*
X74409Y-46850D02*
X74409Y-47047D01*
X104921Y-47047D02*
X104724Y-47047D01*
X104921Y-47047D02*
X105118Y-47047D01*
X104921Y-46850D02*
X104921Y-47244D01*
X104921Y-47047D02*
X104921Y-46850D01*
M02*
